STARTFONT 2.1
FONT -FontForge-Bitstream Vera Sans Mono-Book-R-Normal-SansMono--36-350-75-75-P-219-ISO8859-1
SIZE 35 75 75
FONTBOUNDINGBOX 22 44 0 -9
COMMENT "Generated by fontforge, http://fontforge.sourceforge.net"
COMMENT "Copyright (c) 2003 by Bitstream, Inc. All Rights Reserved."
STARTPROPERTIES 40
FOUNDRY "FontForge"
FAMILY_NAME "Bitstream Vera Sans Mono"
WEIGHT_NAME "Book"
SLANT "R"
SETWIDTH_NAME "Normal"
ADD_STYLE_NAME "SansMono"
PIXEL_SIZE 36
POINT_SIZE 350
RESOLUTION_X 75
RESOLUTION_Y 75
SPACING "P"
AVERAGE_WIDTH 219
CHARSET_REGISTRY "ISO8859"
CHARSET_ENCODING "1"
FONTNAME_REGISTRY ""
CHARSET_COLLECTIONS "ISO8859-9 ISOLatin1Encoding"
FONT_NAME "BitstreamVeraSansMono-Roman"
FACE_NAME "Bitstream Vera Sans Mono"
COPYRIGHT "Copyright (c) 2003 by Bitstream, Inc. All Rights Reserved."
FONT_VERSION "Release 1.10"
FONT_ASCENT 27
FONT_DESCENT 9
UNDERLINE_POSITION -5
UNDERLINE_THICKNESS 3
X_HEIGHT 19
CAP_HEIGHT 25
RAW_ASCENT 759
RAW_DESCENT 240
NORM_SPACE 22
RELATIVE_WEIGHT 40
RELATIVE_SETWIDTH 50
SUPERSCRIPT_X 0
SUPERSCRIPT_Y 10
SUPERSCRIPT_SIZE 21
SUBSCRIPT_X 0
SUBSCRIPT_Y -7
SUBSCRIPT_SIZE 21
FIGURE_WIDTH 22
AVG_LOWERCASE_WIDTH 220
AVG_UPPERCASE_WIDTH 220
ENDPROPERTIES
CHARS 269
STARTCHAR space
ENCODING 32
SWIDTH 602 0
DWIDTH 22 0
BBX 1 1 0 0
BITMAP
00
ENDCHAR
STARTCHAR exclam
ENCODING 33
SWIDTH 602 0
DWIDTH 22 0
BBX 4 26 9 0
BITMAP
F0
F0
F0
F0
F0
F0
F0
F0
F0
F0
F0
F0
F0
F0
F0
F0
F0
F0
00
00
00
00
F0
F0
F0
F0
ENDCHAR
STARTCHAR quotedbl
ENCODING 34
SWIDTH 602 0
DWIDTH 22 0
BBX 10 10 6 16
BITMAP
E1C0
E1C0
E1C0
E1C0
E1C0
E1C0
E1C0
E1C0
E1C0
E1C0
ENDCHAR
STARTCHAR numbersign
ENCODING 35
SWIDTH 602 0
DWIDTH 22 0
BBX 22 26 0 0
BITMAP
0070E0
0070E0
0070E0
00E0E0
00E1C0
00E1C0
00E1C0
3FFFFC
3FFFFC
3FFFFC
01C380
038380
038700
038700
038700
070700
FFFFF0
FFFFF0
FFFFF0
0E0E00
0E1C00
0E1C00
0E1C00
1C1C00
1C3800
1C3800
ENDCHAR
STARTCHAR dollar
ENCODING 36
SWIDTH 602 0
DWIDTH 22 0
BBX 16 32 3 -5
BITMAP
0180
0180
0180
0180
0FF0
3FFC
7FFC
798C
F180
F180
F180
F180
F980
7F80
3FF0
0FFC
01FE
019E
018F
018F
018F
018F
818F
E19E
FFFE
7FF8
0FE0
0180
0180
0180
0180
0180
ENDCHAR
STARTCHAR percent
ENCODING 37
SWIDTH 602 0
DWIDTH 22 0
BBX 20 26 1 0
BITMAP
1F0000
3F8000
71C000
E0E000
C06000
C06000
C06000
E0E000
71C020
3F80E0
1F07C0
001E00
007800
01E000
0F8000
3C0F80
701FC0
4038E0
007070
006030
006030
006030
007070
0038E0
001FC0
000F80
ENDCHAR
STARTCHAR ampersand
ENCODING 38
SWIDTH 602 0
DWIDTH 22 0
BBX 20 26 1 0
BITMAP
03F800
07FC00
0FFC00
1F0400
1E0000
1E0000
1E0000
1E0000
0F0000
0F0000
078000
0FC000
1FE000
3BE070
79F070
F0F870
F0F870
F07C60
F03EE0
F01FE0
F81FC0
7C0F80
7E0FC0
3FFFC0
1FFBE0
07E1F0
ENDCHAR
STARTCHAR quotesingle
ENCODING 39
SWIDTH 602 0
DWIDTH 22 0
BBX 3 10 9 16
BITMAP
E0
E0
E0
E0
E0
E0
E0
E0
E0
E0
ENDCHAR
STARTCHAR parenleft
ENCODING 40
SWIDTH 602 0
DWIDTH 22 0
BBX 8 32 7 -5
BITMAP
07
06
0E
1C
1C
3C
38
38
78
78
70
F0
F0
F0
F0
F0
F0
F0
F0
F0
F0
70
78
78
38
38
3C
1C
1C
0E
06
07
ENDCHAR
STARTCHAR parenright
ENCODING 41
SWIDTH 602 0
DWIDTH 22 0
BBX 8 32 7 -5
BITMAP
E0
60
70
38
38
3C
1C
1C
1E
1E
0E
0F
0F
0F
0F
0F
0F
0F
0F
0F
0F
1E
1E
1E
1C
1C
3C
38
38
70
60
E0
ENDCHAR
STARTCHAR asterisk
ENCODING 42
SWIDTH 602 0
DWIDTH 22 0
BBX 16 16 3 10
BITMAP
0180
0180
0180
4182
F18F
399C
1FF8
07E0
07E0
1FF0
399C
F18F
4182
0180
0180
0180
ENDCHAR
STARTCHAR plus
ENCODING 43
SWIDTH 602 0
DWIDTH 22 0
BBX 19 19 1 2
BITMAP
00E000
00E000
00E000
00E000
00E000
00E000
00E000
00E000
FFFFE0
FFFFE0
FFFFE0
00E000
00E000
00E000
00E000
00E000
00E000
00E000
00E000
ENDCHAR
STARTCHAR comma
ENCODING 44
SWIDTH 602 0
DWIDTH 22 0
BBX 6 10 7 -5
BITMAP
3C
3C
3C
3C
3C
78
78
70
F0
E0
ENDCHAR
STARTCHAR hyphen
ENCODING 45
SWIDTH 602 0
DWIDTH 22 0
BBX 9 3 6 8
BITMAP
FF80
FF80
FF80
ENDCHAR
STARTCHAR period
ENCODING 46
SWIDTH 602 0
DWIDTH 22 0
BBX 4 5 9 0
BITMAP
F0
F0
F0
F0
F0
ENDCHAR
STARTCHAR slash
ENCODING 47
SWIDTH 602 0
DWIDTH 22 0
BBX 18 30 2 -4
BITMAP
0003C0
000780
000780
000F00
000F00
001E00
001E00
003E00
003C00
003C00
007800
007800
00F000
00F000
01E000
01E000
03C000
03C000
078000
078000
0F0000
0F0000
1F0000
1E0000
1E0000
3C0000
3C0000
780000
780000
F00000
ENDCHAR
STARTCHAR zero
ENCODING 48
SWIDTH 602 0
DWIDTH 22 0
BBX 17 26 2 0
BITMAP
03E000
0FF800
1FFC00
3E3E00
7C1F00
780F00
780F00
F00F00
F00780
F00780
F00780
F18780
F3C780
F3C780
F18780
F00780
F00780
F00780
F00F00
780F00
780F00
7C1F00
3E3E00
1FFC00
0FF800
07E000
ENDCHAR
STARTCHAR one
ENCODING 49
SWIDTH 602 0
DWIDTH 22 0
BBX 15 26 4 0
BITMAP
1FC0
FFC0
FFC0
E3C0
03C0
03C0
03C0
03C0
03C0
03C0
03C0
03C0
03C0
03C0
03C0
03C0
03C0
03C0
03C0
03C0
03C0
03C0
03C0
7FFE
7FFE
7FFE
ENDCHAR
STARTCHAR two
ENCODING 50
SWIDTH 602 0
DWIDTH 22 0
BBX 17 26 3 0
BITMAP
3FE000
FFFC00
FFFE00
F03F00
800F00
000780
000780
000780
000780
000780
000F80
001F00
001F00
003E00
007C00
00F800
01F000
03F000
07C000
0F8000
1F0000
3C0000
780000
FFFF80
FFFF80
FFFF80
ENDCHAR
STARTCHAR three
ENCODING 51
SWIDTH 602 0
DWIDTH 22 0
BBX 17 26 2 0
BITMAP
1FE000
7FF800
7FFC00
603E00
001F00
000F00
000F00
000F00
000F00
001E00
003E00
07F800
07E000
07FC00
003E00
000F00
000780
000780
000780
000780
000780
000F80
C03F00
FFFE00
FFFC00
3FF000
ENDCHAR
STARTCHAR four
ENCODING 52
SWIDTH 602 0
DWIDTH 22 0
BBX 18 26 2 0
BITMAP
003C00
007C00
007C00
00FC00
01FC00
01BC00
03BC00
033C00
073C00
0E3C00
0E3C00
1C3C00
383C00
383C00
703C00
703C00
E03C00
FFFFC0
FFFFC0
FFFFC0
003C00
003C00
003C00
003C00
003C00
003C00
ENDCHAR
STARTCHAR five
ENCODING 53
SWIDTH 602 0
DWIDTH 22 0
BBX 17 26 2 0
BITMAP
7FFE00
7FFE00
7FFE00
780000
780000
780000
780000
780000
780000
7FF000
7FFC00
7FFE00
603F00
001F00
000F80
000780
000780
000780
000780
000780
000F80
001F00
C03F00
FFFE00
FFF800
3FE000
ENDCHAR
STARTCHAR six
ENCODING 54
SWIDTH 602 0
DWIDTH 22 0
BBX 17 26 2 0
BITMAP
01FC00
0FFE00
1FFE00
3F0200
3C0000
7C0000
780000
780000
F00000
F1F000
F3FC00
F7FE00
FC1F00
F80F00
F80F80
F00780
F00780
F00780
F00780
700780
780F80
780F00
3C1F00
1FFE00
0FFC00
03F000
ENDCHAR
STARTCHAR seven
ENCODING 55
SWIDTH 602 0
DWIDTH 22 0
BBX 17 26 2 0
BITMAP
FFFF80
FFFF80
FFFF80
000F00
000F00
001E00
001E00
003E00
003C00
003C00
007800
007800
00F800
00F000
00F000
01E000
01E000
03E000
03C000
03C000
07C000
078000
0F8000
0F0000
0F0000
1F0000
ENDCHAR
STARTCHAR eight
ENCODING 56
SWIDTH 602 0
DWIDTH 22 0
BBX 17 26 2 0
BITMAP
07F000
1FFC00
3FFE00
3E3E00
7C1F00
780F00
780F00
780F00
780F00
3C1E00
3E3E00
0FF800
03E000
1FFC00
3C1E00
780F00
F00780
F00780
F00780
F00780
F00780
F80F80
7C1F00
3FFE00
1FFC00
07F000
ENDCHAR
STARTCHAR nine
ENCODING 57
SWIDTH 602 0
DWIDTH 22 0
BBX 17 26 2 0
BITMAP
07E000
1FF800
3FFC00
7C1E00
780F00
F00F00
F00700
F00780
F00780
F00780
F00780
F00F80
780F80
7C1F80
3FF780
1FE780
07C780
000780
000F00
000F00
001F00
001E00
207E00
3FFC00
3FF000
1FE000
ENDCHAR
STARTCHAR colon
ENCODING 58
SWIDTH 602 0
DWIDTH 22 0
BBX 4 19 9 0
BITMAP
F0
F0
F0
F0
F0
00
00
00
00
00
00
00
00
00
F0
F0
F0
F0
F0
ENDCHAR
STARTCHAR semicolon
ENCODING 59
SWIDTH 602 0
DWIDTH 22 0
BBX 6 24 7 -5
BITMAP
3C
3C
3C
3C
3C
00
00
00
00
00
00
00
00
00
3C
3C
3C
3C
3C
78
78
70
F0
E0
ENDCHAR
STARTCHAR less
ENCODING 60
SWIDTH 602 0
DWIDTH 22 0
BBX 19 18 2 2
BITMAP
000020
0001E0
0007E0
003FC0
00FF00
07F800
1FC000
FF0000
F80000
F80000
FF0000
1FC000
07F800
00FF00
003FC0
0007E0
0001E0
000020
ENDCHAR
STARTCHAR equal
ENCODING 61
SWIDTH 602 0
DWIDTH 22 0
BBX 19 10 2 6
BITMAP
FFFFE0
FFFFE0
FFFFE0
000000
000000
000000
000000
FFFFE0
FFFFE0
FFFFE0
ENDCHAR
STARTCHAR greater
ENCODING 62
SWIDTH 602 0
DWIDTH 22 0
BBX 19 18 2 2
BITMAP
800000
F00000
FC0000
7F8000
1FE000
03FC00
007F00
001FE0
0003E0
0003E0
001FE0
007F00
03FC00
1FE000
7F8000
FC0000
F00000
800000
ENDCHAR
STARTCHAR question
ENCODING 63
SWIDTH 602 0
DWIDTH 22 0
BBX 14 26 5 0
BITMAP
1FC0
7FF0
FFF8
E07C
803C
003C
007C
007C
00F8
01F0
03E0
07C0
0780
0F80
0F00
0F00
0F00
0F00
0F00
0000
0000
0000
0F00
0F00
0F00
0F00
ENDCHAR
STARTCHAR at
ENCODING 64
SWIDTH 602 0
DWIDTH 22 0
BBX 20 31 1 -6
BITMAP
007E00
03FF80
07FFC0
0F83C0
1E01E0
3C00E0
380070
780070
701E70
707F70
F0FFF0
E0F1F0
E1E0F0
E1C070
E1C070
E1C070
E1C070
E1C070
E1E0F0
E0F1F0
70FFF0
707F70
701E70
780000
3C0000
1E0000
1F0000
0FC180
07FF80
01FF80
007F00
ENDCHAR
STARTCHAR A
ENCODING 65
SWIDTH 602 0
DWIDTH 22 0
BBX 20 26 1 0
BITMAP
00F000
01F800
01F800
01F800
01F800
03FC00
03FC00
03FC00
07DE00
079E00
079E00
0F9F00
0F0F00
0F0F00
1F0F80
1E0780
1FFF80
1FFF80
3FFFC0
3C03C0
3C03C0
7C03E0
7801E0
7801E0
F801F0
F000F0
ENDCHAR
STARTCHAR B
ENCODING 66
SWIDTH 602 0
DWIDTH 22 0
BBX 17 26 3 0
BITMAP
FFE000
FFF800
FFFE00
F03E00
F01F00
F00F00
F00F00
F00F00
F00F00
F01E00
F03E00
FFFC00
FFE000
FFFC00
F01E00
F00F00
F00780
F00780
F00780
F00780
F00780
F00F80
F01F00
FFFE00
FFFC00
FFF000
ENDCHAR
STARTCHAR C
ENCODING 67
SWIDTH 602 0
DWIDTH 22 0
BBX 16 26 2 0
BITMAP
01F8
07FE
0FFF
1F07
3C03
7C00
7800
7800
F000
F000
F000
F000
F000
F000
F000
F000
F000
F000
7800
7800
7C00
3C03
1F07
0FFF
07FE
01F8
ENDCHAR
STARTCHAR D
ENCODING 68
SWIDTH 602 0
DWIDTH 22 0
BBX 17 26 2 0
BITMAP
FFC000
FFF000
FFFC00
F07E00
F01E00
F00F00
F00F00
F00F00
F00780
F00780
F00780
F00780
F00780
F00780
F00780
F00780
F00780
F00780
F00F00
F00F00
F00F00
F01E00
F07E00
FFFC00
FFF000
FFC000
ENDCHAR
STARTCHAR E
ENCODING 69
SWIDTH 602 0
DWIDTH 22 0
BBX 16 26 4 0
BITMAP
FFFF
FFFF
FFFF
F000
F000
F000
F000
F000
F000
F000
F000
FFFE
FFFE
FFFE
F000
F000
F000
F000
F000
F000
F000
F000
F000
FFFF
FFFF
FFFF
ENDCHAR
STARTCHAR F
ENCODING 70
SWIDTH 602 0
DWIDTH 22 0
BBX 15 26 4 0
BITMAP
FFFE
FFFE
FFFE
F000
F000
F000
F000
F000
F000
F000
FFFC
FFFC
FFFC
F000
F000
F000
F000
F000
F000
F000
F000
F000
F000
F000
F000
F000
ENDCHAR
STARTCHAR G
ENCODING 71
SWIDTH 602 0
DWIDTH 22 0
BBX 18 26 2 0
BITMAP
01FC00
07FF00
0FFF80
1F0780
3E0180
7C0080
780000
780000
F00000
F00000
F00000
F00000
F03FC0
F03FC0
F03FC0
F003C0
F003C0
F003C0
7803C0
7803C0
7C03C0
3C03C0
1F07C0
0FFFC0
07FF00
01FC00
ENDCHAR
STARTCHAR H
ENCODING 72
SWIDTH 602 0
DWIDTH 22 0
BBX 17 26 2 0
BITMAP
F00780
F00780
F00780
F00780
F00780
F00780
F00780
F00780
F00780
F00780
F00780
FFFF80
FFFF80
FFFF80
F00780
F00780
F00780
F00780
F00780
F00780
F00780
F00780
F00780
F00780
F00780
F00780
ENDCHAR
STARTCHAR I
ENCODING 73
SWIDTH 602 0
DWIDTH 22 0
BBX 16 26 3 0
BITMAP
FFFF
FFFF
FFFF
03C0
03C0
03C0
03C0
03C0
03C0
03C0
03C0
03C0
03C0
03C0
03C0
03C0
03C0
03C0
03C0
03C0
03C0
03C0
03C0
FFFF
FFFF
FFFF
ENDCHAR
STARTCHAR J
ENCODING 74
SWIDTH 602 0
DWIDTH 22 0
BBX 15 26 2 0
BITMAP
0FFE
0FFE
0FFE
001E
001E
001E
001E
001E
001E
001E
001E
001E
001E
001E
001E
001E
001E
001E
001E
001E
801E
C03C
F07C
FFF8
7FF0
1FE0
ENDCHAR
STARTCHAR K
ENCODING 75
SWIDTH 602 0
DWIDTH 22 0
BBX 19 26 2 0
BITMAP
F001E0
F003C0
F00780
F00F00
F01E00
F03C00
F07800
F0F000
F1E000
F3C000
F78000
FFC000
FFC000
FFE000
F9F000
F0F000
F0F800
F07C00
F03C00
F03E00
F01F00
F00F00
F00F80
F007C0
F003E0
F003E0
ENDCHAR
STARTCHAR L
ENCODING 76
SWIDTH 602 0
DWIDTH 22 0
BBX 16 26 4 0
BITMAP
F000
F000
F000
F000
F000
F000
F000
F000
F000
F000
F000
F000
F000
F000
F000
F000
F000
F000
F000
F000
F000
F000
F000
FFFF
FFFF
FFFF
ENDCHAR
STARTCHAR M
ENCODING 77
SWIDTH 602 0
DWIDTH 22 0
BBX 19 26 2 0
BITMAP
FC07E0
FC07E0
FC07E0
FC07E0
FE0FE0
F60DE0
F60DE0
F71DE0
F319E0
F319E0
F3B9E0
F3B9E0
F1B1E0
F1F1E0
F1F1E0
F0E1E0
F0E1E0
F001E0
F001E0
F001E0
F001E0
F001E0
F001E0
F001E0
F001E0
F001E0
ENDCHAR
STARTCHAR N
ENCODING 78
SWIDTH 602 0
DWIDTH 22 0
BBX 17 26 2 0
BITMAP
F80780
FC0780
FC0780
FC0780
FE0780
FE0780
F60780
F70780
F70780
F38780
F38780
F18780
F1C780
F1C780
F0C780
F0E780
F0E780
F07780
F07780
F03780
F03F80
F03F80
F01F80
F01F80
F01F80
F00F80
ENDCHAR
STARTCHAR O
ENCODING 79
SWIDTH 602 0
DWIDTH 22 0
BBX 18 26 2 0
BITMAP
03F000
0FFC00
1FFE00
3E1F00
7C0F00
780780
780780
F00380
F003C0
F003C0
F003C0
F003C0
F003C0
F003C0
F003C0
F003C0
F003C0
F003C0
F00380
780780
780780
7C0F80
3E1F00
1FFE00
0FFC00
03F000
ENDCHAR
STARTCHAR P
ENCODING 80
SWIDTH 602 0
DWIDTH 22 0
BBX 17 26 4 0
BITMAP
FFF000
FFFC00
FFFE00
F03F00
F00F00
F00F80
F00780
F00780
F00780
F00780
F00F80
F00F00
F03F00
FFFE00
FFFC00
FFF000
F00000
F00000
F00000
F00000
F00000
F00000
F00000
F00000
F00000
F00000
ENDCHAR
STARTCHAR Q
ENCODING 81
SWIDTH 602 0
DWIDTH 22 0
BBX 18 31 2 -5
BITMAP
03F000
0FFC00
1FFE00
3E1F00
7C0F00
780780
780780
F00380
F003C0
F003C0
F003C0
F003C0
F003C0
F003C0
F003C0
F003C0
F003C0
F003C0
F00380
780780
780780
7C0F00
3E1F00
1FFE00
0FFC00
03F800
003C00
001E00
000F00
000F00
000400
ENDCHAR
STARTCHAR R
ENCODING 82
SWIDTH 602 0
DWIDTH 22 0
BBX 19 26 3 0
BITMAP
FFE000
FFF800
FFFC00
F03E00
F01F00
F00F00
F00F00
F00F00
F00F00
F00F00
F01E00
F03E00
FFFC00
FFE000
FFF000
F0F800
F07C00
F03E00
F01E00
F01F00
F00F00
F00F80
F00780
F007C0
F003C0
F003E0
ENDCHAR
STARTCHAR S
ENCODING 83
SWIDTH 602 0
DWIDTH 22 0
BBX 17 26 2 0
BITMAP
07F800
1FFE00
3FFE00
7C0E00
780200
F00000
F00000
F00000
F00000
FC0000
7F8000
7FF000
1FFC00
07FE00
00FF00
001F80
000F80
000780
000780
000780
000780
800F80
F03F00
FFFE00
FFFC00
3FF000
ENDCHAR
STARTCHAR T
ENCODING 84
SWIDTH 602 0
DWIDTH 22 0
BBX 20 26 1 0
BITMAP
FFFFF0
FFFFF0
FFFFF0
00F000
00F000
00F000
00F000
00F000
00F000
00F000
00F000
00F000
00F000
00F000
00F000
00F000
00F000
00F000
00F000
00F000
00F000
00F000
00F000
00F000
00F000
00F000
ENDCHAR
STARTCHAR U
ENCODING 85
SWIDTH 602 0
DWIDTH 22 0
BBX 17 26 3 0
BITMAP
F00780
F00780
F00780
F00780
F00780
F00780
F00780
F00780
F00780
F00780
F00780
F00780
F00780
F00780
F00780
F00780
F00780
F00780
F00780
F00780
F00780
780F00
7C1F00
3FFE00
1FFC00
07F000
ENDCHAR
STARTCHAR V
ENCODING 86
SWIDTH 602 0
DWIDTH 22 0
BBX 20 26 1 0
BITMAP
F000F0
F801F0
7801E0
7801E0
7C03E0
3C03C0
3C03C0
3C03C0
1E0780
1E0780
1E0780
1F0F80
0F0F00
0F0F00
0F9F00
079E00
079E00
079E00
03FC00
03FC00
03FC00
03FC00
01F800
01F800
01F800
00F000
ENDCHAR
STARTCHAR W
ENCODING 87
SWIDTH 602 0
DWIDTH 22 0
BBX 22 26 0 0
BITMAP
F0003C
F0003C
F0003C
780078
780078
780078
780078
787878
787878
7C78F8
3CFCF0
3CFCF0
3CFCF0
3CCCF0
3CCCF0
3DCEF0
1FCFE0
1F87E0
1F87E0
1F87E0
1F87E0
1F03E0
1F03E0
0F03C0
0F03C0
0F03C0
ENDCHAR
STARTCHAR X
ENCODING 88
SWIDTH 602 0
DWIDTH 22 0
BBX 21 26 1 0
BITMAP
7C01F0
3E03E0
1E03C0
1F07C0
0F0F80
0F8F80
07DF00
03DE00
03FE00
01FC00
01F800
00F800
00F000
00F800
01FC00
03FC00
03FE00
07DF00
079F00
0F8F80
1F07C0
1E07C0
3E03E0
3C01E0
7C01F0
F800F8
ENDCHAR
STARTCHAR Y
ENCODING 89
SWIDTH 602 0
DWIDTH 22 0
BBX 20 26 1 0
BITMAP
F801F0
7801E0
7C03E0
3E07C0
1E07C0
1F0F80
0F0F00
0F9F00
079E00
07FE00
03FC00
03FC00
01F800
00F000
00F000
00F000
00F000
00F000
00F000
00F000
00F000
00F000
00F000
00F000
00F000
00F000
ENDCHAR
STARTCHAR Z
ENCODING 90
SWIDTH 602 0
DWIDTH 22 0
BBX 18 26 3 0
BITMAP
FFFFC0
FFFFC0
FFFFC0
000780
000F80
001F00
001F00
003E00
007C00
007C00
00F800
00F000
01F000
03E000
03C000
07C000
0F8000
0F8000
1F0000
3E0000
3E0000
7C0000
780000
FFFFC0
FFFFC0
FFFFC0
ENDCHAR
STARTCHAR bracketleft
ENCODING 91
SWIDTH 602 0
DWIDTH 22 0
BBX 8 32 8 -5
BITMAP
FF
FF
FF
F0
F0
F0
F0
F0
F0
F0
F0
F0
F0
F0
F0
F0
F0
F0
F0
F0
F0
F0
F0
F0
F0
F0
F0
F0
F0
FF
FF
FF
ENDCHAR
STARTCHAR backslash
ENCODING 92
SWIDTH 602 0
DWIDTH 22 0
BBX 18 30 2 -4
BITMAP
F00000
780000
780000
3C0000
3C0000
1E0000
1E0000
1F0000
0F0000
0F0000
078000
078000
03C000
03C000
01E000
01E000
00F000
00F000
007800
007800
003C00
003C00
003E00
001E00
001E00
000F00
000F00
000780
000780
0003C0
ENDCHAR
STARTCHAR bracketright
ENCODING 93
SWIDTH 602 0
DWIDTH 22 0
BBX 8 32 6 -5
BITMAP
FF
FF
FF
0F
0F
0F
0F
0F
0F
0F
0F
0F
0F
0F
0F
0F
0F
0F
0F
0F
0F
0F
0F
0F
0F
0F
0F
0F
0F
FF
FF
FF
ENDCHAR
STARTCHAR asciicircum
ENCODING 94
SWIDTH 602 0
DWIDTH 22 0
BBX 19 10 1 16
BITMAP
00E000
01F000
03F800
07BC00
0F1E00
0E0E00
1C0700
380380
7001C0
F001E0
ENDCHAR
STARTCHAR underscore
ENCODING 95
SWIDTH 602 0
DWIDTH 22 0
BBX 18 3 0 -8
BITMAP
FFFFC0
FFFFC0
FFFFC0
ENDCHAR
STARTCHAR grave
ENCODING 96
SWIDTH 602 0
DWIDTH 22 0
BBX 8 7 5 22
BITMAP
F0
70
38
1C
1C
0E
07
ENDCHAR
STARTCHAR a
ENCODING 97
SWIDTH 602 0
DWIDTH 22 0
BBX 17 20 2 0
BITMAP
07F000
3FFC00
7FFE00
701F00
400F00
000780
000780
000780
07FF80
3FFF80
7FFF80
7C0780
F00780
F00780
F00F80
F00F80
F83F80
7FF780
3FE780
0FC780
ENDCHAR
STARTCHAR b
ENCODING 98
SWIDTH 602 0
DWIDTH 22 0
BBX 17 27 3 0
BITMAP
F00000
F00000
F00000
F00000
F00000
F00000
F00000
F1F000
F7FC00
FFFE00
FE1F00
F80F00
F80F00
F00780
F00780
F00780
F00780
F00780
F00780
F00780
F00780
F80F00
F80F00
FC1E00
FFFE00
F7FC00
F1F000
ENDCHAR
STARTCHAR c
ENCODING 99
SWIDTH 602 0
DWIDTH 22 0
BBX 15 20 3 0
BITMAP
03F0
0FFC
1FFE
3E06
7C02
7800
F800
F000
F000
F000
F000
F000
F000
F800
7800
7C02
3E06
1FFE
0FFC
03F0
ENDCHAR
STARTCHAR d
ENCODING 100
SWIDTH 602 0
DWIDTH 22 0
BBX 17 27 2 0
BITMAP
000780
000780
000780
000780
000780
000780
000780
07C780
1FF780
3FFF80
7C3F80
780F80
780F80
F00780
F00780
F00780
F00780
F00780
F00780
F00780
F00780
780F80
780F80
7C1F80
3FFF80
1FF780
07C780
ENDCHAR
STARTCHAR e
ENCODING 101
SWIDTH 602 0
DWIDTH 22 0
BBX 17 20 2 0
BITMAP
03F000
0FFC00
1FFE00
3E1F00
780F00
780780
F00780
F00780
FFFF80
FFFF80
FFFF80
F00000
F00000
F00000
780000
780100
3E0700
1FFF00
0FFE00
03F800
ENDCHAR
STARTCHAR f
ENCODING 102
SWIDTH 602 0
DWIDTH 22 0
BBX 16 27 4 0
BITMAP
00FF
01FF
03FF
07C0
0780
0780
0780
FFFF
FFFF
FFFF
0780
0780
0780
0780
0780
0780
0780
0780
0780
0780
0780
0780
0780
0780
0780
0780
0780
ENDCHAR
STARTCHAR g
ENCODING 103
SWIDTH 602 0
DWIDTH 22 0
BBX 17 27 2 -7
BITMAP
07C780
1FF780
3FFF80
3E1F80
780F80
780F80
F00780
F00780
F00780
F00780
F00780
F00780
F00780
F00780
780F80
780F80
3E1F80
3FF780
1FF780
07C780
000780
000780
200F00
381F00
3FFE00
1FFC00
07F000
ENDCHAR
STARTCHAR h
ENCODING 104
SWIDTH 602 0
DWIDTH 22 0
BBX 15 27 3 0
BITMAP
F000
F000
F000
F000
F000
F000
F000
F1F0
F7F8
F7FC
FC3C
F83E
F81E
F01E
F01E
F01E
F01E
F01E
F01E
F01E
F01E
F01E
F01E
F01E
F01E
F01E
F01E
ENDCHAR
STARTCHAR i
ENCODING 105
SWIDTH 602 0
DWIDTH 22 0
BBX 16 27 4 0
BITMAP
03C0
03C0
03C0
03C0
0000
0000
0000
7FC0
7FC0
7FC0
03C0
03C0
03C0
03C0
03C0
03C0
03C0
03C0
03C0
03C0
03C0
03C0
03C0
03C0
FFFF
FFFF
FFFF
ENDCHAR
STARTCHAR j
ENCODING 106
SWIDTH 602 0
DWIDTH 22 0
BBX 11 34 4 -7
BITMAP
01E0
01E0
01E0
01E0
0000
0000
0000
7FE0
7FE0
7FE0
01E0
01E0
01E0
01E0
01E0
01E0
01E0
01E0
01E0
01E0
01E0
01E0
01E0
01E0
01E0
01E0
01E0
01E0
01E0
03E0
03C0
FFC0
FF80
FE00
ENDCHAR
STARTCHAR k
ENCODING 107
SWIDTH 602 0
DWIDTH 22 0
BBX 17 27 4 0
BITMAP
F00000
F00000
F00000
F00000
F00000
F00000
F00000
F00F80
F01F00
F03E00
F07C00
F0F800
F1F000
F3E000
F7C000
FF8000
FFC000
FFE000
FFE000
F9F000
F8F800
F0F800
F07C00
F03E00
F03E00
F01F00
F00F80
ENDCHAR
STARTCHAR l
ENCODING 108
SWIDTH 602 0
DWIDTH 22 0
BBX 17 27 2 0
BITMAP
FFC000
FFC000
FFC000
03C000
03C000
03C000
03C000
03C000
03C000
03C000
03C000
03C000
03C000
03C000
03C000
03C000
03C000
03C000
03C000
03C000
03C000
03C000
03E000
01E000
01FF80
00FF80
003F80
ENDCHAR
STARTCHAR m
ENCODING 109
SWIDTH 602 0
DWIDTH 22 0
BBX 20 20 2 0
BITMAP
F3C7C0
FFEFE0
FFFFE0
F9F9F0
F0F0F0
F0F0F0
F0F0F0
F0F0F0
F0F0F0
F0F0F0
F0F0F0
F0F0F0
F0F0F0
F0F0F0
F0F0F0
F0F0F0
F0F0F0
F0F0F0
F0F0F0
F0F0F0
ENDCHAR
STARTCHAR n
ENCODING 110
SWIDTH 602 0
DWIDTH 22 0
BBX 15 20 3 0
BITMAP
F1F0
F7F8
F7FC
FC3C
F83E
F81E
F01E
F01E
F01E
F01E
F01E
F01E
F01E
F01E
F01E
F01E
F01E
F01E
F01E
F01E
ENDCHAR
STARTCHAR o
ENCODING 111
SWIDTH 602 0
DWIDTH 22 0
BBX 17 20 2 0
BITMAP
07F000
1FFC00
3FFE00
7C1E00
780F00
780F00
F00780
F00780
F00780
F00780
F00780
F00780
F00780
F00780
780F00
780F00
7C1E00
3FFE00
1FFC00
07F000
ENDCHAR
STARTCHAR p
ENCODING 112
SWIDTH 602 0
DWIDTH 22 0
BBX 17 27 3 -7
BITMAP
F1F000
F7FC00
FFFE00
FE1F00
F80F00
F80F00
F00780
F00780
F00780
F00780
F00780
F00780
F00780
F00780
F80F00
F80F00
FC1F00
FFFE00
F7FC00
F1F000
F00000
F00000
F00000
F00000
F00000
F00000
F00000
ENDCHAR
STARTCHAR q
ENCODING 113
SWIDTH 602 0
DWIDTH 22 0
BBX 17 27 2 -7
BITMAP
07C780
1FF780
3FFF80
7C3F80
780F80
780F80
F00780
F00780
F00780
F00780
F00780
F00780
F00780
F00780
780F80
780F80
7C1F80
3FFF80
1FF780
07C780
000780
000780
000780
000780
000780
000780
000780
ENDCHAR
STARTCHAR r
ENCODING 114
SWIDTH 602 0
DWIDTH 22 0
BBX 14 20 6 0
BITMAP
F1F8
F3FC
F7FC
FE04
FC00
F800
F800
F000
F000
F000
F000
F000
F000
F000
F000
F000
F000
F000
F000
F000
ENDCHAR
STARTCHAR s
ENCODING 115
SWIDTH 602 0
DWIDTH 22 0
BBX 14 20 4 0
BITMAP
0FC0
3FF0
7FF8
F838
F008
F000
F800
FF80
7FF0
3FF8
0FF8
00FC
007C
003C
003C
803C
E0FC
FFF8
7FF0
1FC0
ENDCHAR
STARTCHAR t
ENCODING 116
SWIDTH 602 0
DWIDTH 22 0
BBX 16 26 3 0
BITMAP
0780
0780
0780
0780
0780
0780
FFFF
FFFF
FFFF
0780
0780
0780
0780
0780
0780
0780
0780
0780
0780
0780
0780
0780
07C0
03FF
01FF
007F
ENDCHAR
STARTCHAR u
ENCODING 117
SWIDTH 602 0
DWIDTH 22 0
BBX 15 20 3 0
BITMAP
F01E
F01E
F01E
F01E
F01E
F01E
F01E
F01E
F01E
F01E
F01E
F01E
F01E
F01E
F03E
F83E
787E
7FDE
3FDE
1F1E
ENDCHAR
STARTCHAR v
ENCODING 118
SWIDTH 602 0
DWIDTH 22 0
BBX 18 20 2 0
BITMAP
F003C0
780780
780780
780780
3C0F00
3C0F00
3C1F00
1E1E00
1E1E00
1F3E00
0F3C00
0F3C00
0FFC00
07F800
07F800
07F800
03F000
03F000
03F000
01E000
ENDCHAR
STARTCHAR w
ENCODING 119
SWIDTH 602 0
DWIDTH 22 0
BBX 22 20 0 0
BITMAP
F0003C
F0003C
780078
780078
780078
780078
3C78F8
3C78F0
3C78F0
3C78F0
3EFDF0
1ECDE0
1ECDE0
1FCDE0
1F87E0
0F87C0
0F87C0
0F87C0
0F03C0
070380
ENDCHAR
STARTCHAR x
ENCODING 120
SWIDTH 602 0
DWIDTH 22 0
BBX 19 20 1 0
BITMAP
7C07C0
3E0F80
1F1F00
1F1F00
0FBE00
07FC00
03F800
03F800
01F000
00E000
01F000
03F800
03F800
07FC00
0FBE00
1F1F00
1F1F00
3E0F80
7C07C0
F803E0
ENDCHAR
STARTCHAR y
ENCODING 121
SWIDTH 602 0
DWIDTH 22 0
BBX 18 27 2 -7
BITMAP
F007C0
780780
780780
7C0F80
3C0F00
3C0F00
3E1E00
1E1E00
1F3E00
0F3C00
0F3C00
0FF800
07F800
07F800
07F000
03F000
03F000
01E000
01E000
03C000
03C000
07C000
078000
0F8000
7F0000
7E0000
7C0000
ENDCHAR
STARTCHAR z
ENCODING 122
SWIDTH 602 0
DWIDTH 22 0
BBX 15 20 4 0
BITMAP
FFFE
FFFE
FFFE
007E
007C
00F8
01F0
01F0
03E0
07C0
07C0
0F80
1F00
3E00
3E00
7C00
F800
FFFE
FFFE
FFFE
ENDCHAR
STARTCHAR braceleft
ENCODING 123
SWIDTH 602 0
DWIDTH 22 0
BBX 14 33 4 -6
BITMAP
00FC
03FC
03FC
07C0
0780
0780
0780
0780
0780
0780
0780
0780
0780
0F80
0F00
FE00
F800
FE00
1F00
0F80
0780
0780
0780
0780
0780
0780
0780
0780
0780
07C0
03FC
03FC
00FC
ENDCHAR
STARTCHAR bar
ENCODING 124
SWIDTH 602 0
DWIDTH 22 0
BBX 3 36 9 -9
BITMAP
E0
E0
E0
E0
E0
E0
E0
E0
E0
E0
E0
E0
E0
E0
E0
E0
E0
E0
E0
E0
E0
E0
E0
E0
E0
E0
E0
E0
E0
E0
E0
E0
E0
E0
E0
E0
ENDCHAR
STARTCHAR braceright
ENCODING 125
SWIDTH 602 0
DWIDTH 22 0
BBX 14 33 4 -6
BITMAP
FC00
FF00
FF00
0F80
0780
0780
0780
0780
0780
0780
0780
0780
0780
0780
03C0
01FC
007C
01FC
03C0
07C0
0780
0780
0780
0780
0780
0780
0780
0780
0780
0F80
FF00
FF00
FC00
ENDCHAR
STARTCHAR asciitilde
ENCODING 126
SWIDTH 602 0
DWIDTH 22 0
BBX 19 5 2 9
BITMAP
1F8020
7FE0E0
FFFFE0
E0FFC0
801F80
ENDCHAR
STARTCHAR nonbreakingspace
ENCODING 160
SWIDTH 602 0
DWIDTH 22 0
BBX 1 1 0 0
BITMAP
00
ENDCHAR
STARTCHAR exclamdown
ENCODING 161
SWIDTH 602 0
DWIDTH 22 0
BBX 4 26 9 0
BITMAP
F0
F0
F0
F0
00
00
00
00
F0
F0
F0
F0
F0
F0
F0
F0
F0
F0
F0
F0
F0
F0
F0
F0
F0
F0
ENDCHAR
STARTCHAR cent
ENCODING 162
SWIDTH 602 0
DWIDTH 22 0
BBX 15 31 4 -6
BITMAP
00C0
00C0
00C0
00C0
00C0
03F0
0FFC
1FFE
3ECE
7CC2
78C0
F0C0
F0C0
F0C0
F0C0
F0C0
F0C0
F0C0
F8C0
78C0
7CC2
3ECE
1FFE
0FFC
03F0
00C0
00C0
00C0
00C0
00C0
00C0
ENDCHAR
STARTCHAR sterling
ENCODING 163
SWIDTH 602 0
DWIDTH 22 0
BBX 17 26 3 0
BITMAP
007E00
01FF80
03FF80
07C080
078000
0F0000
0F0000
0F0000
0F0000
0F0000
0F0000
0F0000
FFFE00
FFFE00
FFFE00
0F0000
0F0000
0F0000
0F0000
0F0000
0F0000
0F0000
0F0000
FFFF80
FFFF80
FFFF80
ENDCHAR
STARTCHAR currency
ENCODING 164
SWIDTH 602 0
DWIDTH 22 0
BBX 16 16 3 3
BITMAP
4002
E007
77EE
3FFC
1C38
381C
300C
300C
300C
300C
381C
1C38
3FFC
77EE
E007
4002
ENDCHAR
STARTCHAR yen
ENCODING 165
SWIDTH 602 0
DWIDTH 22 0
BBX 20 26 1 0
BITMAP
F801F0
7801E0
7C03E0
3E07C0
3E07C0
1F0F80
1F0F80
0F9F00
0F9E00
07FE00
7FFFE0
7FFFE0
01F800
01F800
00F000
7FFFE0
7FFFE0
00F000
00F000
00F000
00F000
00F000
00F000
00F000
00F000
00F000
ENDCHAR
STARTCHAR brokenbar
ENCODING 166
SWIDTH 602 0
DWIDTH 22 0
BBX 3 31 9 -6
BITMAP
E0
E0
E0
E0
E0
E0
E0
E0
E0
E0
E0
E0
E0
00
00
00
00
00
E0
E0
E0
E0
E0
E0
E0
E0
E0
E0
E0
E0
E0
ENDCHAR
STARTCHAR section
ENCODING 167
SWIDTH 602 0
DWIDTH 22 0
BBX 15 29 4 -3
BITMAP
0FE0
1FF8
3FF8
7818
7000
7000
7800
3C00
1F00
3FC0
73F0
E0F8
E07C
E01E
F00E
F80E
7C0E
3F1C
0FFC
07F0
00F8
0078
001C
001C
001C
603C
7FF8
7FF0
1FC0
ENDCHAR
STARTCHAR dieresis
ENCODING 168
SWIDTH 602 0
DWIDTH 22 0
BBX 11 4 6 23
BITMAP
F1E0
F1E0
F1E0
F1E0
ENDCHAR
STARTCHAR copyright
ENCODING 169
SWIDTH 602 0
DWIDTH 22 0
BBX 22 22 0 2
BITMAP
00FC00
07FF80
0F03C0
1C00E0
380070
70FC38
61FE18
638218
C7000C
C6000C
C6000C
C6000C
C6000C
C7000C
638218
61FE18
70FC38
380070
1C00E0
0F03C0
07FF00
00FC00
ENDCHAR
STARTCHAR ordfeminine
ENCODING 170
SWIDTH 602 0
DWIDTH 22 0
BBX 13 18 4 8
BITMAP
1FC0
7FE0
60F0
0038
0038
1FF8
7FF8
7038
E038
E038
E078
F0F8
7FB8
3F38
0000
0000
FFF8
FFF8
ENDCHAR
STARTCHAR guillemotleft
ENCODING 171
SWIDTH 602 0
DWIDTH 22 0
BBX 16 16 2 3
BITMAP
0101
0303
0707
0F0F
1E1E
3C3C
7870
F0E0
F0E0
7870
3C3C
1E1E
0F0F
0707
0303
0101
ENDCHAR
STARTCHAR logicalnot
ENCODING 172
SWIDTH 602 0
DWIDTH 22 0
BBX 19 9 2 6
BITMAP
FFFFE0
FFFFE0
FFFFE0
0000E0
0000E0
0000E0
0000E0
0000E0
0000E0
ENDCHAR
STARTCHAR sfthyphen
ENCODING 173
SWIDTH 602 0
DWIDTH 22 0
BBX 9 3 6 8
BITMAP
FF80
FF80
FF80
ENDCHAR
STARTCHAR registered
ENCODING 174
SWIDTH 602 0
DWIDTH 22 0
BBX 22 22 0 2
BITMAP
00FC00
07FF80
0F03C0
1C00E0
380070
71FC38
61FE18
618718
C1830C
C1870C
C1FE0C
C1F80C
C18C0C
C1860C
618718
618318
7183B8
380070
1C00E0
0F03C0
07FF00
00FC00
ENDCHAR
STARTCHAR macron
ENCODING 175
SWIDTH 602 0
DWIDTH 22 0
BBX 11 3 6 24
BITMAP
FFE0
FFE0
FFE0
ENDCHAR
STARTCHAR degree
ENCODING 176
SWIDTH 602 0
DWIDTH 22 0
BBX 11 11 5 15
BITMAP
1F00
3F80
71C0
E0E0
C060
C060
C060
E0E0
71C0
3F80
1F00
ENDCHAR
STARTCHAR plusminus
ENCODING 177
SWIDTH 602 0
DWIDTH 22 0
BBX 19 21 1 0
BITMAP
00E000
00E000
00E000
00E000
00E000
00E000
FFFFE0
FFFFE0
FFFFE0
00E000
00E000
00E000
00E000
00E000
00E000
000000
000000
000000
FFFFE0
FFFFE0
FFFFE0
ENDCHAR
STARTCHAR twosuperior
ENCODING 178
SWIDTH 602 0
DWIDTH 22 0
BBX 10 15 6 11
BITMAP
7E00
FF80
83C0
01C0
01C0
01C0
03C0
0780
0F00
1F00
3E00
7C00
7800
FFC0
FFC0
ENDCHAR
STARTCHAR threesuperior
ENCODING 179
SWIDTH 602 0
DWIDTH 22 0
BBX 11 15 6 11
BITMAP
3F00
7FC0
41E0
00E0
00E0
01C0
1F80
1F80
01C0
00E0
00E0
00E0
81E0
FFC0
7F00
ENDCHAR
STARTCHAR acute
ENCODING 180
SWIDTH 602 0
DWIDTH 22 0
BBX 8 7 8 22
BITMAP
0F
0E
1C
38
38
70
E0
ENDCHAR
STARTCHAR mu
ENCODING 181
SWIDTH 602 0
DWIDTH 22 0
BBX 17 27 3 -7
BITMAP
F01E00
F01E00
F01E00
F01E00
F01E00
F01E00
F01E00
F01E00
F01E00
F01E00
F01E00
F01E00
F01E00
F01E00
F03E00
F83E00
FC7E00
FFEF80
FFEF80
F3C700
F00000
F00000
F00000
F00000
F00000
F00000
F00000
ENDCHAR
STARTCHAR paragraph
ENCODING 182
SWIDTH 602 0
DWIDTH 22 0
BBX 16 29 2 -3
BITMAP
0FFF
1FFF
3FC7
7FC7
FFC7
FFC7
FFC7
FFC7
FFC7
FFC7
FFC7
7FC7
3FC7
1FC7
07C7
01C7
01C7
01C7
01C7
01C7
01C7
01C7
01C7
01C7
01C7
01C7
01C7
01C7
01C7
ENDCHAR
STARTCHAR periodcentered
ENCODING 183
SWIDTH 602 0
DWIDTH 22 0
BBX 4 5 9 10
BITMAP
F0
F0
F0
F0
F0
ENDCHAR
STARTCHAR cedilla
ENCODING 184
SWIDTH 602 0
DWIDTH 22 0
BBX 7 7 7 -7
BITMAP
08
0C
06
86
FE
FE
FC
ENDCHAR
STARTCHAR onesuperior
ENCODING 185
SWIDTH 602 0
DWIDTH 22 0
BBX 11 15 6 11
BITMAP
3E00
FE00
CE00
0E00
0E00
0E00
0E00
0E00
0E00
0E00
0E00
0E00
0E00
FFE0
FFE0
ENDCHAR
STARTCHAR ordmasculine
ENCODING 186
SWIDTH 602 0
DWIDTH 22 0
BBX 13 18 4 8
BITMAP
0F80
3FE0
78F0
7070
E038
E038
E038
E038
E038
E038
7070
78F0
3FE0
0F80
0000
0000
7FF0
7FF0
ENDCHAR
STARTCHAR guillemotright
ENCODING 187
SWIDTH 602 0
DWIDTH 22 0
BBX 16 16 3 3
BITMAP
8080
C0C0
E0E0
F0F0
7878
3C3C
0E1E
070F
070F
0E1E
3C3C
7878
F0F0
E0E0
C0C0
8080
ENDCHAR
STARTCHAR onequarter
ENCODING 188
SWIDTH 602 0
DWIDTH 22 0
BBX 19 34 0 -5
BITMAP
1F0000
7F0000
670000
070000
070000
070000
070000
070000
070000
070000
070000
070000
070000
7FF000
7FF060
0007E0
007F80
03F800
3FC000
FC0380
C00780
000780
000B80
001B80
001380
003380
006380
006380
00C380
00FFE0
00FFE0
000380
000380
000380
ENDCHAR
STARTCHAR onehalf
ENCODING 189
SWIDTH 602 0
DWIDTH 22 0
BBX 20 34 0 -5
BITMAP
1F0000
7F0000
670000
070000
070000
070000
070000
070000
070000
070000
070000
070000
070000
7FF000
7FF060
0007E0
007F80
03F800
3FC000
FC1F80
C03FE0
0020F0
000070
000070
000070
0000F0
0001E0
0003C0
0007C0
000F80
001F00
001E00
003FF0
003FF0
ENDCHAR
STARTCHAR threequarters
ENCODING 190
SWIDTH 602 0
DWIDTH 22 0
BBX 19 34 0 -5
BITMAP
0FC000
1FF000
107800
003800
003800
007000
07E000
07E000
007000
003800
003800
003800
207800
3FF000
1FC060
0007E0
007F80
03F800
3FC000
FC0380
C00780
000780
000B80
001B80
001380
003380
006380
006380
00C380
00FFE0
00FFE0
000380
000380
000380
ENDCHAR
STARTCHAR questiondown
ENCODING 191
SWIDTH 602 0
DWIDTH 22 0
BBX 14 26 4 0
BITMAP
03C0
03C0
03C0
03C0
0000
0000
0000
03C0
03C0
03C0
03C0
03C0
07C0
0780
0F80
1F00
3E00
7C00
F800
F000
F000
F004
F81C
7FFC
3FF8
0FE0
ENDCHAR
STARTCHAR Agrave
ENCODING 192
SWIDTH 602 0
DWIDTH 22 0
BBX 20 34 1 0
BITMAP
03C000
01C000
00E000
007000
003800
000000
000000
000000
00F000
01F800
01F800
01F800
01F800
03FC00
03FC00
03FC00
07DE00
079E00
079E00
0F9F00
0F0F00
0F0F00
1F0F80
1E0780
1FFF80
1FFF80
3FFFC0
3C03C0
3C03C0
7C03E0
7801E0
7801E0
F801F0
F000F0
ENDCHAR
STARTCHAR Aacute
ENCODING 193
SWIDTH 602 0
DWIDTH 22 0
BBX 20 34 1 0
BITMAP
003C00
003800
007000
00E000
01C000
000000
000000
000000
00F000
01F800
01F800
01F800
01F800
03FC00
03FC00
03FC00
07DE00
079E00
079E00
0F9F00
0F0F00
0F0F00
1F0F80
1E0780
1FFF80
1FFF80
3FFFC0
3C03C0
3C03C0
7C03E0
7801E0
7801E0
F801F0
F000F0
ENDCHAR
STARTCHAR Acircumflex
ENCODING 194
SWIDTH 602 0
DWIDTH 22 0
BBX 20 34 1 0
BITMAP
01F000
01F000
03B800
071C00
0E0E00
000000
000000
000000
00F000
01F800
01F800
01F800
01F800
03FC00
03FC00
03FC00
07DE00
079E00
079E00
0F9F00
0F0F00
0F0F00
1F0F80
1E0780
1FFF80
1FFF80
3FFFC0
3C03C0
3C03C0
7C03E0
7801E0
7801E0
F801F0
F000F0
ENDCHAR
STARTCHAR Atilde
ENCODING 195
SWIDTH 602 0
DWIDTH 22 0
BBX 20 34 1 0
BITMAP
038300
07E300
0C7E00
0C1C00
000000
000000
000000
000000
00F000
01F800
01F800
01F800
01F800
03FC00
03FC00
03FC00
07DE00
079E00
079E00
0F9F00
0F0F00
0F0F00
1F0F80
1E0780
1FFF80
1FFF80
3FFFC0
3C03C0
3C03C0
7C03E0
7801E0
7801E0
F801F0
F000F0
ENDCHAR
STARTCHAR Adieresis
ENCODING 196
SWIDTH 602 0
DWIDTH 22 0
BBX 20 34 1 0
BITMAP
078F00
078F00
078F00
078F00
000000
000000
000000
000000
00F000
01F800
01F800
01F800
01F800
03FC00
03FC00
03FC00
07DE00
079E00
079E00
0F9F00
0F0F00
0F0F00
1F0F80
1E0780
1FFF80
1FFF80
3FFFC0
3C03C0
3C03C0
7C03E0
7801E0
7801E0
F801F0
F000F0
ENDCHAR
STARTCHAR Aring
ENCODING 197
SWIDTH 602 0
DWIDTH 22 0
BBX 20 33 1 0
BITMAP
00F000
03FC00
030C00
060600
060600
060600
070E00
03FC00
01F800
01F800
03FC00
03FC00
03FC00
03FC00
079E00
079E00
079E00
0F9F00
0F0F00
0F0F00
0F0F00
1E0780
1E0780
1FFF80
3FFFC0
3FFFC0
3C03C0
3C03C0
7801E0
7801E0
7801E0
F801F0
F000F0
ENDCHAR
STARTCHAR AE
ENCODING 198
SWIDTH 602 0
DWIDTH 22 0
BBX 21 26 0 0
BITMAP
01FFF8
01FFF8
03FFF8
03DC00
03DC00
03DC00
079C00
079C00
079C00
0F9C00
0F1C00
0F1FF0
0F1FF0
1F1FF0
1E1C00
1E1C00
1FFC00
3FFC00
3FFC00
3C1C00
7C1C00
781C00
781C00
781FF8
F81FF8
F01FF8
ENDCHAR
STARTCHAR Ccedilla
ENCODING 199
SWIDTH 602 0
DWIDTH 22 0
BBX 16 33 2 -7
BITMAP
01F8
07FE
0FFF
1F07
3C03
7C00
7800
7800
F000
F000
F000
F000
F000
F000
F000
F000
F000
F000
7800
7800
7C00
3C03
1F07
0FFF
07FE
01F8
0010
0018
000C
010C
01FC
01FC
01F8
ENDCHAR
STARTCHAR Egrave
ENCODING 200
SWIDTH 602 0
DWIDTH 22 0
BBX 16 34 4 0
BITMAP
1E00
0E00
0700
0380
01C0
0000
0000
0000
FFFF
FFFF
FFFF
F000
F000
F000
F000
F000
F000
F000
F000
FFFE
FFFE
FFFE
F000
F000
F000
F000
F000
F000
F000
F000
F000
FFFF
FFFF
FFFF
ENDCHAR
STARTCHAR Eacute
ENCODING 201
SWIDTH 602 0
DWIDTH 22 0
BBX 16 34 4 0
BITMAP
01E0
01C0
0380
0700
0E00
0000
0000
0000
FFFF
FFFF
FFFF
F000
F000
F000
F000
F000
F000
F000
F000
FFFE
FFFE
FFFE
F000
F000
F000
F000
F000
F000
F000
F000
F000
FFFF
FFFF
FFFF
ENDCHAR
STARTCHAR Ecircumflex
ENCODING 202
SWIDTH 602 0
DWIDTH 22 0
BBX 16 34 4 0
BITMAP
0F80
0F80
1DC0
38E0
7070
0000
0000
0000
FFFF
FFFF
FFFF
F000
F000
F000
F000
F000
F000
F000
F000
FFFE
FFFE
FFFE
F000
F000
F000
F000
F000
F000
F000
F000
F000
FFFF
FFFF
FFFF
ENDCHAR
STARTCHAR Edieresis
ENCODING 203
SWIDTH 602 0
DWIDTH 22 0
BBX 16 34 4 0
BITMAP
3C78
3C78
3C78
3C78
0000
0000
0000
0000
FFFF
FFFF
FFFF
F000
F000
F000
F000
F000
F000
F000
F000
FFFE
FFFE
FFFE
F000
F000
F000
F000
F000
F000
F000
F000
F000
FFFF
FFFF
FFFF
ENDCHAR
STARTCHAR Igrave
ENCODING 204
SWIDTH 602 0
DWIDTH 22 0
BBX 16 34 3 0
BITMAP
0F00
0700
0380
01C0
00E0
0000
0000
0000
FFFF
FFFF
FFFF
03C0
03C0
03C0
03C0
03C0
03C0
03C0
03C0
03C0
03C0
03C0
03C0
03C0
03C0
03C0
03C0
03C0
03C0
03C0
03C0
FFFF
FFFF
FFFF
ENDCHAR
STARTCHAR Iacute
ENCODING 205
SWIDTH 602 0
DWIDTH 22 0
BBX 16 34 3 0
BITMAP
00F0
00E0
01C0
0380
0700
0000
0000
0000
FFFF
FFFF
FFFF
03C0
03C0
03C0
03C0
03C0
03C0
03C0
03C0
03C0
03C0
03C0
03C0
03C0
03C0
03C0
03C0
03C0
03C0
03C0
03C0
FFFF
FFFF
FFFF
ENDCHAR
STARTCHAR Icircumflex
ENCODING 206
SWIDTH 602 0
DWIDTH 22 0
BBX 16 34 3 0
BITMAP
07C0
07C0
0EE0
1C70
3838
0000
0000
0000
FFFF
FFFF
FFFF
03C0
03C0
03C0
03C0
03C0
03C0
03C0
03C0
03C0
03C0
03C0
03C0
03C0
03C0
03C0
03C0
03C0
03C0
03C0
03C0
FFFF
FFFF
FFFF
ENDCHAR
STARTCHAR Idieresis
ENCODING 207
SWIDTH 602 0
DWIDTH 22 0
BBX 16 34 3 0
BITMAP
1E3C
1E3C
1E3C
1E3C
0000
0000
0000
0000
FFFF
FFFF
FFFF
03C0
03C0
03C0
03C0
03C0
03C0
03C0
03C0
03C0
03C0
03C0
03C0
03C0
03C0
03C0
03C0
03C0
03C0
03C0
03C0
FFFF
FFFF
FFFF
ENDCHAR
STARTCHAR Eth
ENCODING 208
SWIDTH 602 0
DWIDTH 22 0
BBX 19 26 0 0
BITMAP
3FF000
3FFC00
3FFF00
3C1F80
3C0780
3C03C0
3C03C0
3C03C0
3C01E0
3C01E0
3C01E0
FFE1E0
FFE1E0
FFE1E0
3C01E0
3C01E0
3C01E0
3C01E0
3C03C0
3C03C0
3C03C0
3C0780
3C1F80
3FFF00
3FFC00
3FF000
ENDCHAR
STARTCHAR Ntilde
ENCODING 209
SWIDTH 602 0
DWIDTH 22 0
BBX 17 34 2 0
BITMAP
070600
0FC600
18FC00
183800
000000
000000
000000
000000
F80780
FC0780
FC0780
FC0780
FE0780
FE0780
F60780
F70780
F70780
F38780
F38780
F18780
F1C780
F1C780
F0C780
F0E780
F0E780
F07780
F07780
F03780
F03F80
F03F80
F01F80
F01F80
F01F80
F00F80
ENDCHAR
STARTCHAR Ograve
ENCODING 210
SWIDTH 602 0
DWIDTH 22 0
BBX 18 34 2 0
BITMAP
078000
038000
01C000
00E000
007000
000000
000000
000000
03F000
0FFC00
1FFE00
3E1F00
7C0F00
780780
780780
F00380
F003C0
F003C0
F003C0
F003C0
F003C0
F003C0
F003C0
F003C0
F003C0
F003C0
F00380
780780
780780
7C0F80
3E1F00
1FFE00
0FFC00
03F000
ENDCHAR
STARTCHAR Oacute
ENCODING 211
SWIDTH 602 0
DWIDTH 22 0
BBX 18 34 2 0
BITMAP
007800
007000
00E000
01C000
038000
000000
000000
000000
03F000
0FFC00
1FFE00
3E1F00
7C0F00
780780
780780
F00380
F003C0
F003C0
F003C0
F003C0
F003C0
F003C0
F003C0
F003C0
F003C0
F003C0
F00380
780780
780780
7C0F80
3E1F00
1FFE00
0FFC00
03F000
ENDCHAR
STARTCHAR Ocircumflex
ENCODING 212
SWIDTH 602 0
DWIDTH 22 0
BBX 18 34 2 0
BITMAP
03E000
03E000
077000
0E3800
1C1C00
000000
000000
000000
03F000
0FFC00
1FFE00
3E1F00
7C0F00
780780
780780
F00380
F003C0
F003C0
F003C0
F003C0
F003C0
F003C0
F003C0
F003C0
F003C0
F003C0
F00380
780780
780780
7C0F80
3E1F00
1FFE00
0FFC00
03F000
ENDCHAR
STARTCHAR Otilde
ENCODING 213
SWIDTH 602 0
DWIDTH 22 0
BBX 18 34 2 0
BITMAP
070600
0FC600
18FC00
183800
000000
000000
000000
000000
03F000
0FFC00
1FFE00
3E1F00
7C0F00
780780
780780
F00380
F003C0
F003C0
F003C0
F003C0
F003C0
F003C0
F003C0
F003C0
F003C0
F003C0
F00380
780780
780780
7C0F80
3E1F00
1FFE00
0FFC00
03F000
ENDCHAR
STARTCHAR Odieresis
ENCODING 214
SWIDTH 602 0
DWIDTH 22 0
BBX 18 34 2 0
BITMAP
0F1E00
0F1E00
0F1E00
0F1E00
000000
000000
000000
000000
03F000
0FFC00
1FFE00
3E1F00
7C0F00
780780
780780
F00380
F003C0
F003C0
F003C0
F003C0
F003C0
F003C0
F003C0
F003C0
F003C0
F003C0
F00380
780780
780780
7C0F80
3E1F00
1FFE00
0FFC00
03F000
ENDCHAR
STARTCHAR multiply
ENCODING 215
SWIDTH 602 0
DWIDTH 22 0
BBX 16 16 3 3
BITMAP
4006
E00F
F01F
783E
3C7C
1EF8
0FF0
07E0
07E0
0FF0
1EF8
3E7C
7C3E
F81F
700E
2004
ENDCHAR
STARTCHAR Oslash
ENCODING 216
SWIDTH 602 0
DWIDTH 22 0
BBX 21 27 0 -1
BITMAP
00FC18
03FF38
07FFF0
0F87E0
1F03E0
1E01E0
1E03E0
3C03E0
3C06F0
3C0EF0
3C1CF0
3C18F0
3C38F0
3C70F0
3CE0F0
3CC0F0
3DC0F0
3F80F0
3F00F0
1E01E0
1E01E0
1F03E0
3F87C0
37FF80
73FF00
E0FC00
400000
ENDCHAR
STARTCHAR Ugrave
ENCODING 217
SWIDTH 602 0
DWIDTH 22 0
BBX 17 34 3 0
BITMAP
0F0000
070000
038000
01C000
00E000
000000
000000
000000
F00780
F00780
F00780
F00780
F00780
F00780
F00780
F00780
F00780
F00780
F00780
F00780
F00780
F00780
F00780
F00780
F00780
F00780
F00780
F00780
F00780
780F00
7C1F00
3FFE00
1FFC00
07F000
ENDCHAR
STARTCHAR Uacute
ENCODING 218
SWIDTH 602 0
DWIDTH 22 0
BBX 17 34 3 0
BITMAP
00F000
00E000
01C000
038000
070000
000000
000000
000000
F00780
F00780
F00780
F00780
F00780
F00780
F00780
F00780
F00780
F00780
F00780
F00780
F00780
F00780
F00780
F00780
F00780
F00780
F00780
F00780
F00780
780F00
7C1F00
3FFE00
1FFC00
07F000
ENDCHAR
STARTCHAR Ucircumflex
ENCODING 219
SWIDTH 602 0
DWIDTH 22 0
BBX 17 34 3 0
BITMAP
07C000
07C000
0EE000
1C7000
383800
000000
000000
000000
F00780
F00780
F00780
F00780
F00780
F00780
F00780
F00780
F00780
F00780
F00780
F00780
F00780
F00780
F00780
F00780
F00780
F00780
F00780
F00780
F00780
780F00
7C1F00
3FFE00
1FFC00
07F000
ENDCHAR
STARTCHAR Udieresis
ENCODING 220
SWIDTH 602 0
DWIDTH 22 0
BBX 17 34 3 0
BITMAP
1E3C00
1E3C00
1E3C00
1E3C00
000000
000000
000000
000000
F00780
F00780
F00780
F00780
F00780
F00780
F00780
F00780
F00780
F00780
F00780
F00780
F00780
F00780
F00780
F00780
F00780
F00780
F00780
F00780
F00780
780F00
7C1F00
3FFE00
1FFC00
07F000
ENDCHAR
STARTCHAR Yacute
ENCODING 221
SWIDTH 602 0
DWIDTH 22 0
BBX 20 34 1 0
BITMAP
003C00
003800
007000
00E000
01C000
000000
000000
000000
F801F0
7801E0
7C03E0
3E07C0
1E07C0
1F0F80
0F0F00
0F9F00
079E00
07FE00
03FC00
03FC00
01F800
00F000
00F000
00F000
00F000
00F000
00F000
00F000
00F000
00F000
00F000
00F000
00F000
00F000
ENDCHAR
STARTCHAR Thorn
ENCODING 222
SWIDTH 602 0
DWIDTH 22 0
BBX 17 26 4 0
BITMAP
F00000
F00000
F00000
F00000
F00000
FFF000
FFFC00
FFFE00
F01F00
F00F80
F00780
F00780
F00780
F00780
F00780
F00F80
F01F00
FFFF00
FFFC00
FFF000
F00000
F00000
F00000
F00000
F00000
F00000
ENDCHAR
STARTCHAR germandbls
ENCODING 223
SWIDTH 602 0
DWIDTH 22 0
BBX 17 27 3 0
BITMAP
0FE000
3FF800
7FFC00
7C7C00
F83E00
F01E00
F01E00
F07E00
F1F000
F1E000
F3C000
F3C000
F3C000
F3C000
F1E000
F0F800
F03C00
F01E00
F00F00
F00780
F00780
F00780
F00780
F40F80
F7FF00
F7FE00
F3F800
ENDCHAR
STARTCHAR agrave
ENCODING 224
SWIDTH 602 0
DWIDTH 22 0
BBX 17 29 2 0
BITMAP
1E0000
0E0000
070000
038000
038000
01C000
00E000
000000
000000
07F000
3FFC00
7FFE00
701F00
400F00
000780
000780
000780
07FF80
3FFF80
7FFF80
7C0780
F00780
F00780
F00F80
F00F80
F83F80
7FF780
3FE780
0FC780
ENDCHAR
STARTCHAR aacute
ENCODING 225
SWIDTH 602 0
DWIDTH 22 0
BBX 17 29 2 0
BITMAP
003C00
003800
007000
00E000
00E000
01C000
038000
000000
000000
07F000
3FFC00
7FFE00
701F00
400F00
000780
000780
000780
07FF80
3FFF80
7FFF80
7C0780
F00780
F00780
F00F80
F00F80
F83F80
7FF780
3FE780
0FC780
ENDCHAR
STARTCHAR acircumflex
ENCODING 226
SWIDTH 602 0
DWIDTH 22 0
BBX 17 29 2 0
BITMAP
01C000
03E000
036000
077000
0E3000
0C1800
1C1C00
000000
000000
07F000
3FFC00
7FFE00
701F00
400F00
000780
000780
000780
07FF80
3FFF80
7FFF80
7C0780
F00780
F00780
F00F80
F00F80
F83F80
7FF780
3FE780
0FC780
ENDCHAR
STARTCHAR atilde
ENCODING 227
SWIDTH 602 0
DWIDTH 22 0
BBX 17 28 2 0
BITMAP
070600
0FC600
1DEE00
18FC00
183800
000000
000000
000000
07F000
3FFC00
7FFE00
701F00
400F00
000780
000780
000780
07FF80
3FFF80
7FFF80
7C0780
F00780
F00780
F00F80
F00F80
F83F80
7FF780
3FE780
0FC780
ENDCHAR
STARTCHAR adieresis
ENCODING 228
SWIDTH 602 0
DWIDTH 22 0
BBX 17 27 2 0
BITMAP
0F1E00
0F1E00
0F1E00
0F1E00
000000
000000
000000
07F000
3FFC00
7FFE00
701F00
400F00
000780
000780
000780
07FF80
3FFF80
7FFF80
7C0780
F00780
F00780
F00F80
F00F80
F83F80
7FF780
3FE780
0FC780
ENDCHAR
STARTCHAR aring
ENCODING 229
SWIDTH 602 0
DWIDTH 22 0
BBX 17 32 2 0
BITMAP
01E000
07F800
061800
0C0C00
0C0C00
0C0C00
0C0C00
061800
07F800
01E000
000000
000000
07F000
3FFC00
7FFE00
701F00
400F00
000780
000780
000780
07FF80
3FFF80
7FFF80
7C0780
F00780
F00780
F00F80
F00F80
F83F80
7FF780
3FE780
0FC780
ENDCHAR
STARTCHAR ae
ENCODING 230
SWIDTH 602 0
DWIDTH 22 0
BBX 20 20 1 0
BITMAP
3F0F80
7F9FC0
7FFFE0
41F9E0
00F0F0
00F0F0
00F0F0
00F0F0
1FFFF0
3FFFF0
7FFFF0
F8F000
F0F000
F0F000
F0F000
F0F810
F9FC30
7FFFF0
7F9FE0
1F0FC0
ENDCHAR
STARTCHAR ccedilla
ENCODING 231
SWIDTH 602 0
DWIDTH 22 0
BBX 15 27 3 -7
BITMAP
03F0
0FFC
1FFE
3E06
7C02
7800
F800
F000
F000
F000
F000
F000
F000
F800
7800
7C02
3E06
1FFE
0FFC
03F0
0020
0030
0018
0218
03F8
03F8
03F0
ENDCHAR
STARTCHAR egrave
ENCODING 232
SWIDTH 602 0
DWIDTH 22 0
BBX 17 29 2 0
BITMAP
1E0000
0E0000
070000
038000
038000
01C000
00E000
000000
000000
03F000
0FFC00
1FFE00
3E1F00
780F00
780780
F00780
F00780
FFFF80
FFFF80
FFFF80
F00000
F00000
F00000
780000
780100
3E0700
1FFF00
0FFE00
03F800
ENDCHAR
STARTCHAR eacute
ENCODING 233
SWIDTH 602 0
DWIDTH 22 0
BBX 17 29 2 0
BITMAP
003C00
003800
007000
00E000
00E000
01C000
038000
000000
000000
03F000
0FFC00
1FFE00
3E1F00
780F00
780780
F00780
F00780
FFFF80
FFFF80
FFFF80
F00000
F00000
F00000
780000
780100
3E0700
1FFF00
0FFE00
03F800
ENDCHAR
STARTCHAR ecircumflex
ENCODING 234
SWIDTH 602 0
DWIDTH 22 0
BBX 17 29 2 0
BITMAP
01C000
03E000
036000
077000
0E3000
0C1800
1C1C00
000000
000000
03F000
0FFC00
1FFE00
3E1F00
780F00
780780
F00780
F00780
FFFF80
FFFF80
FFFF80
F00000
F00000
F00000
780000
780100
3E0700
1FFF00
0FFE00
03F800
ENDCHAR
STARTCHAR edieresis
ENCODING 235
SWIDTH 602 0
DWIDTH 22 0
BBX 17 27 2 0
BITMAP
0F1E00
0F1E00
0F1E00
0F1E00
000000
000000
000000
03F000
0FFC00
1FFE00
3E1F00
780F00
780780
F00780
F00780
FFFF80
FFFF80
FFFF80
F00000
F00000
F00000
780000
780100
3E0700
1FFF00
0FFE00
03F800
ENDCHAR
STARTCHAR igrave
ENCODING 236
SWIDTH 602 0
DWIDTH 22 0
BBX 16 29 4 0
BITMAP
7800
3800
1C00
0E00
0E00
0700
0380
0000
0000
7FC0
7FC0
7FC0
03C0
03C0
03C0
03C0
03C0
03C0
03C0
03C0
03C0
03C0
03C0
03C0
03C0
03C0
FFFF
FFFF
FFFF
ENDCHAR
STARTCHAR iacute
ENCODING 237
SWIDTH 602 0
DWIDTH 22 0
BBX 16 29 4 0
BITMAP
00F0
00E0
01C0
0380
0380
0700
0E00
0000
0000
7FC0
7FC0
7FC0
03C0
03C0
03C0
03C0
03C0
03C0
03C0
03C0
03C0
03C0
03C0
03C0
03C0
03C0
FFFF
FFFF
FFFF
ENDCHAR
STARTCHAR icircumflex
ENCODING 238
SWIDTH 602 0
DWIDTH 22 0
BBX 16 29 4 0
BITMAP
0700
0F80
0D80
1DC0
38C0
3060
7070
0000
0000
7FC0
7FC0
7FC0
03C0
03C0
03C0
03C0
03C0
03C0
03C0
03C0
03C0
03C0
03C0
03C0
03C0
03C0
FFFF
FFFF
FFFF
ENDCHAR
STARTCHAR idieresis
ENCODING 239
SWIDTH 602 0
DWIDTH 22 0
BBX 16 27 4 0
BITMAP
3C78
3C78
3C78
3C78
0000
0000
0000
7FC0
7FC0
7FC0
03C0
03C0
03C0
03C0
03C0
03C0
03C0
03C0
03C0
03C0
03C0
03C0
03C0
03C0
FFFF
FFFF
FFFF
ENDCHAR
STARTCHAR eth
ENCODING 240
SWIDTH 602 0
DWIDTH 22 0
BBX 17 27 2 0
BITMAP
3E0000
1F0C00
0FFC00
07F000
1FE000
3FF000
01F000
01F800
07FC00
1FFE00
3FFE00
7E1F00
780F00
780F00
F00780
F00780
F00780
F00780
F00780
F00780
F00780
780F00
780F00
7C1F00
3FFE00
1FFC00
07F000
ENDCHAR
STARTCHAR ntilde
ENCODING 241
SWIDTH 602 0
DWIDTH 22 0
BBX 15 28 3 0
BITMAP
0E0C
1F8C
3BDC
31F8
3070
0000
0000
0000
F1F0
F7F8
F7FC
FC3C
F83E
F81E
F01E
F01E
F01E
F01E
F01E
F01E
F01E
F01E
F01E
F01E
F01E
F01E
F01E
F01E
ENDCHAR
STARTCHAR ograve
ENCODING 242
SWIDTH 602 0
DWIDTH 22 0
BBX 17 29 2 0
BITMAP
1E0000
0E0000
070000
038000
038000
01C000
00E000
000000
000000
07F000
1FFC00
3FFE00
7C1E00
780F00
780F00
F00780
F00780
F00780
F00780
F00780
F00780
F00780
F00780
780F00
780F00
7C1E00
3FFE00
1FFC00
07F000
ENDCHAR
STARTCHAR oacute
ENCODING 243
SWIDTH 602 0
DWIDTH 22 0
BBX 17 29 2 0
BITMAP
003C00
003800
007000
00E000
00E000
01C000
038000
000000
000000
07F000
1FFC00
3FFE00
7C1E00
780F00
780F00
F00780
F00780
F00780
F00780
F00780
F00780
F00780
F00780
780F00
780F00
7C1E00
3FFE00
1FFC00
07F000
ENDCHAR
STARTCHAR ocircumflex
ENCODING 244
SWIDTH 602 0
DWIDTH 22 0
BBX 17 29 2 0
BITMAP
01C000
03E000
036000
077000
0E3000
0C1800
1C1C00
000000
000000
07F000
1FFC00
3FFE00
7C1E00
780F00
780F00
F00780
F00780
F00780
F00780
F00780
F00780
F00780
F00780
780F00
780F00
7C1E00
3FFE00
1FFC00
07F000
ENDCHAR
STARTCHAR otilde
ENCODING 245
SWIDTH 602 0
DWIDTH 22 0
BBX 17 28 2 0
BITMAP
070600
0FC600
1DEE00
18FC00
183800
000000
000000
000000
07F000
1FFC00
3FFE00
7C1E00
780F00
780F00
F00780
F00780
F00780
F00780
F00780
F00780
F00780
F00780
780F00
780F00
7C1E00
3FFE00
1FFC00
07F000
ENDCHAR
STARTCHAR odieresis
ENCODING 246
SWIDTH 602 0
DWIDTH 22 0
BBX 17 27 2 0
BITMAP
0F1E00
0F1E00
0F1E00
0F1E00
000000
000000
000000
07F000
1FFC00
3FFE00
7C1E00
780F00
780F00
F00780
F00780
F00780
F00780
F00780
F00780
F00780
F00780
780F00
780F00
7C1E00
3FFE00
1FFC00
07F000
ENDCHAR
STARTCHAR divide
ENCODING 247
SWIDTH 602 0
DWIDTH 22 0
BBX 18 17 2 3
BITMAP
01E000
01E000
01E000
01E000
000000
000000
000000
FFFFC0
FFFFC0
FFFFC0
000000
000000
000000
01E000
01E000
01E000
01E000
ENDCHAR
STARTCHAR oslash
ENCODING 248
SWIDTH 602 0
DWIDTH 22 0
BBX 19 22 1 -1
BITMAP
000040
03F0E0
0FFDC0
1FFF80
3F0F80
3C0780
3C0F80
781FC0
783BC0
7873C0
7863C0
78C3C0
79C3C0
7B83C0
7F03C0
3E0780
3C0780
3F0F80
3FFF00
77FE00
E1F800
C00000
ENDCHAR
STARTCHAR ugrave
ENCODING 249
SWIDTH 602 0
DWIDTH 22 0
BBX 15 29 3 0
BITMAP
3C00
1C00
0E00
0700
0700
0380
01C0
0000
0000
F01E
F01E
F01E
F01E
F01E
F01E
F01E
F01E
F01E
F01E
F01E
F01E
F01E
F01E
F03E
F83E
787E
7FDE
3FDE
1F1E
ENDCHAR
STARTCHAR uacute
ENCODING 250
SWIDTH 602 0
DWIDTH 22 0
BBX 15 29 3 0
BITMAP
0078
0070
00E0
01C0
01C0
0380
0700
0000
0000
F01E
F01E
F01E
F01E
F01E
F01E
F01E
F01E
F01E
F01E
F01E
F01E
F01E
F01E
F03E
F83E
787E
7FDE
3FDE
1F1E
ENDCHAR
STARTCHAR ucircumflex
ENCODING 251
SWIDTH 602 0
DWIDTH 22 0
BBX 15 29 3 0
BITMAP
0380
07C0
06C0
0EE0
1C60
1830
3838
0000
0000
F01E
F01E
F01E
F01E
F01E
F01E
F01E
F01E
F01E
F01E
F01E
F01E
F01E
F01E
F03E
F83E
787E
7FDE
3FDE
1F1E
ENDCHAR
STARTCHAR udieresis
ENCODING 252
SWIDTH 602 0
DWIDTH 22 0
BBX 15 27 3 0
BITMAP
1E3C
1E3C
1E3C
1E3C
0000
0000
0000
F01E
F01E
F01E
F01E
F01E
F01E
F01E
F01E
F01E
F01E
F01E
F01E
F01E
F01E
F03E
F83E
787E
7FDE
3FDE
1F1E
ENDCHAR
STARTCHAR yacute
ENCODING 253
SWIDTH 602 0
DWIDTH 22 0
BBX 18 36 2 -7
BITMAP
003C00
003800
007000
00E000
00E000
01C000
038000
000000
000000
F007C0
780780
780780
7C0F80
3C0F00
3C0F00
3E1E00
1E1E00
1F3E00
0F3C00
0F3C00
0FF800
07F800
07F800
07F000
03F000
03F000
01E000
01E000
03C000
03C000
07C000
078000
0F8000
7F0000
7E0000
7C0000
ENDCHAR
STARTCHAR thorn
ENCODING 254
SWIDTH 602 0
DWIDTH 22 0
BBX 17 34 3 -7
BITMAP
F00000
F00000
F00000
F00000
F00000
F00000
F00000
F1F000
F7FC00
FFFE00
FE1F00
F80F00
F80F00
F00780
F00780
F00780
F00780
F00780
F00780
F00780
F00780
F80F00
F80F00
FC1F00
FFFE00
F7FC00
F1F000
F00000
F00000
F00000
F00000
F00000
F00000
F00000
ENDCHAR
STARTCHAR ydieresis
ENCODING 255
SWIDTH 602 0
DWIDTH 22 0
BBX 18 34 2 -7
BITMAP
0F1E00
0F1E00
0F1E00
0F1E00
000000
000000
000000
F007C0
780780
780780
7C0F80
3C0F00
3C0F00
3E1E00
1E1E00
1F3E00
0F3C00
0F3C00
0FF800
07F800
07F800
07F000
03F000
03F000
01E000
01E000
03C000
03C000
07C000
078000
0F8000
7F0000
7E0000
7C0000
ENDCHAR
STARTCHAR .notdef
ENCODING -1
SWIDTH 602 0
DWIDTH 22 0
BBX 18 32 2 -7
BITMAP
FFFFC0
FFFFC0
C000C0
C000C0
C000C0
C000C0
C000C0
C000C0
C000C0
C000C0
C000C0
C000C0
C000C0
C000C0
C000C0
C000C0
C000C0
C000C0
C000C0
C000C0
C000C0
C000C0
C000C0
C000C0
C000C0
C000C0
C000C0
C000C0
C000C0
C000C0
FFFFC0
FFFFC0
ENDCHAR
STARTCHAR .null
ENCODING -1
SWIDTH 0 0
DWIDTH 0 0
BBX 1 1 0 0
BITMAP
00
ENDCHAR
STARTCHAR nonmarkingreturn
ENCODING -1
SWIDTH 602 0
DWIDTH 22 0
BBX 1 1 0 0
BITMAP
00
ENDCHAR
STARTCHAR dagger
ENCODING -1
SWIDTH 602 0
DWIDTH 22 0
BBX 15 29 3 -3
BITMAP
0380
0380
0380
0380
0380
0380
0380
FFFE
FFFE
FFFE
0380
0380
0380
0380
0380
0380
0380
0380
0380
0380
0380
0380
0380
0380
0380
0380
0380
0380
0380
ENDCHAR
STARTCHAR bullet
ENCODING -1
SWIDTH 602 0
DWIDTH 22 0
BBX 10 10 6 9
BITMAP
1E00
7F80
7F80
FFC0
FFC0
FFC0
FFC0
7F80
7F80
1E00
ENDCHAR
STARTCHAR trademark
ENCODING -1
SWIDTH 602 0
DWIDTH 22 0
BBX 20 10 0 16
BITMAP
FF7070
FF78F0
1868F0
186DB0
186730
186730
186230
186030
186030
186030
ENDCHAR
STARTCHAR notequal
ENCODING -1
SWIDTH 602 0
DWIDTH 22 0
BBX 19 22 2 0
BITMAP
000080
0001C0
0003C0
000780
000700
000F00
FFFFE0
FFFFE0
FFFFE0
007800
00F000
01E000
03C000
FFFFE0
FFFFE0
FFFFE0
1E0000
3C0000
3C0000
780000
700000
200000
ENDCHAR
STARTCHAR infinity
ENCODING -1
SWIDTH 602 0
DWIDTH 22 0
BBX 20 13 1 5
BITMAP
1E0780
3F0FC0
7F9FE0
E3FC60
C1F830
C0F030
C06030
C0F030
C1F830
E3FC70
7F9FE0
3F0FC0
1E0780
ENDCHAR
STARTCHAR lessequal
ENCODING -1
SWIDTH 602 0
DWIDTH 22 0
BBX 19 19 2 0
BITMAP
000060
0003E0
001FE0
00FFC0
07FE00
7FE000
FF0000
F80000
FF0000
3FF000
07FE00
00FFC0
001FE0
0003E0
000060
000000
FFFFE0
FFFFE0
FFFFE0
ENDCHAR
STARTCHAR greaterequal
ENCODING -1
SWIDTH 602 0
DWIDTH 22 0
BBX 19 19 2 0
BITMAP
C00000
F80000
FF0000
7FE000
0FFC00
01FFC0
001FE0
0003E0
001FE0
00FF80
0FFC00
7FE000
FF0000
F80000
C00000
000000
FFFFE0
FFFFE0
FFFFE0
ENDCHAR
STARTCHAR partialdiff
ENCODING -1
SWIDTH 602 0
DWIDTH 22 0
BBX 15 23 3 0
BITMAP
03E0
0FF0
0F18
0E0C
000C
000C
000E
000E
000E
0F8E
1C6E
383E
701E
701E
E01C
E01C
E01C
E018
E038
6030
7060
30C0
0F80
ENDCHAR
STARTCHAR summation
ENCODING -1
SWIDTH 602 0
DWIDTH 22 0
BBX 17 35 3 -8
BITMAP
FFFF80
FFFF80
700000
700000
380000
1C0000
1C0000
0E0000
070000
070000
038000
01C000
01C000
00E000
007000
007000
003800
007000
007000
00E000
00E000
01C000
038000
038000
070000
070000
0E0000
1E0000
1C0000
380000
380000
700000
F00000
FFFF80
FFFF80
ENDCHAR
STARTCHAR product
ENCODING -1
SWIDTH 602 0
DWIDTH 22 0
BBX 16 35 3 -8
BITMAP
FFFF
FFFF
E007
E007
E007
E007
E007
E007
E007
E007
E007
E007
E007
E007
E007
E007
E007
E007
E007
E007
E007
E007
E007
E007
E007
E007
E007
E007
E007
E007
E007
E007
E007
E007
E007
ENDCHAR
STARTCHAR pi
ENCODING -1
SWIDTH 602 0
DWIDTH 22 0
BBX 20 19 1 0
BITMAP
FFFFE0
FFFFE0
FFFFE0
1C0380
1C0380
1C0380
1C0380
1C0380
1C0380
1C0380
1C0380
1C0380
1C0380
1C0380
1C0380
1C0380
1C03F0
1C01F0
1C01F0
ENDCHAR
STARTCHAR integral
ENCODING -1
SWIDTH 602 0
DWIDTH 22 0
BBX 18 34 2 -7
BITMAP
000F80
001FC0
003BC0
0073C0
007380
00F000
00F000
00E000
00E000
00E000
01E000
01E000
01E000
01E000
01E000
01E000
01E000
01E000
01E000
01E000
01E000
01E000
01E000
01E000
01C000
01C000
01C000
03C000
03C000
738000
F38000
FF0000
FE0000
7C0000
ENDCHAR
STARTCHAR Omega
ENCODING -1
SWIDTH 602 0
DWIDTH 22 0
BBX 19 25 2 0
BITMAP
03F800
0FFE00
1FFF00
3E0F80
380380
7803C0
7001C0
F001E0
E000E0
E000E0
E000E0
E000E0
E000E0
E000E0
E000E0
E000E0
7001C0
7001C0
7001C0
380380
380380
1C0700
FE0FE0
FE0FE0
FE0FE0
ENDCHAR
STARTCHAR radical
ENCODING -1
SWIDTH 602 0
DWIDTH 22 0
BBX 20 30 1 0
BITMAP
000070
000070
0000E0
0000E0
0000C0
0000C0
0001C0
000180
000180
000380
000300
000300
000700
180700
FC0600
FC0E00
4C0E00
0E0C00
0E1C00
061C00
061800
073800
033800
033000
03B000
01F000
01E000
01E000
01E000
00C000
ENDCHAR
STARTCHAR florin
ENCODING -1
SWIDTH 602 0
DWIDTH 22 0
BBX 21 34 0 -7
BITMAP
0001F0
0007F8
0007F8
000F88
000F00
001E00
001E00
001E00
001E00
001E00
003C00
003C00
07FFE0
07FFE0
07FFE0
003C00
007C00
007800
007800
007800
007800
007800
00F000
00F000
00F000
00F000
00F000
01E000
01E000
03E000
87C000
FFC000
FF8000
7E0000
ENDCHAR
STARTCHAR approxequal
ENCODING -1
SWIDTH 602 0
DWIDTH 22 0
BBX 19 12 2 5
BITMAP
1F8020
7FE0E0
FFFFE0
E0FFC0
801F80
000000
000000
1F0020
7FE0E0
FFFFE0
E0FFE0
801F80
ENDCHAR
STARTCHAR Delta
ENCODING -1
SWIDTH 602 0
DWIDTH 22 0
BBX 22 25 0 0
BITMAP
007800
007800
00FC00
00FC00
01FC00
01FE00
01FE00
03FF00
03CF00
03CF00
07CF80
078780
078780
0F07C0
0F03C0
1F03E0
1E01E0
1E01E0
3E01F0
3C00F0
3C00F0
7C00F8
7FFFF8
7FFFF8
FFFFFC
ENDCHAR
STARTCHAR ellipsis
ENCODING -1
SWIDTH 602 0
DWIDTH 22 0
BBX 18 5 1 0
BITMAP
F1E3C0
F1E3C0
F1E3C0
F1E3C0
F1E3C0
ENDCHAR
STARTCHAR OE
ENCODING -1
SWIDTH 602 0
DWIDTH 22 0
BBX 20 26 1 0
BITMAP
03FFF0
0FFFF0
3FFFF0
3E3C00
783C00
783C00
783C00
F03C00
F03C00
F03C00
F03C00
F03FE0
F03FE0
F03FE0
F03C00
F03C00
F03C00
F03C00
F03C00
783C00
783C00
783C00
3E3C00
3FFFF0
0FFFF0
03FFF0
ENDCHAR
STARTCHAR oe
ENCODING -1
SWIDTH 602 0
DWIDTH 22 0
BBX 21 20 0 0
BITMAP
0FC3C0
3FE7F0
3FFFF0
787EF0
787C78
F03C78
F03C78
F03C78
F03FF8
F03FF8
F03FF8
F03C00
F03C00
F03C00
F03C00
787E00
787E18
3FFFF8
3FE7F0
0F83E0
ENDCHAR
STARTCHAR endash
ENCODING -1
SWIDTH 602 0
DWIDTH 22 0
BBX 22 3 0 8
BITMAP
FFFFFC
FFFFFC
FFFFFC
ENDCHAR
STARTCHAR emdash
ENCODING -1
SWIDTH 602 0
DWIDTH 22 0
BBX 22 3 0 8
BITMAP
FFFFFC
FFFFFC
FFFFFC
ENDCHAR
STARTCHAR quotedblleft
ENCODING -1
SWIDTH 602 0
DWIDTH 22 0
BBX 14 10 4 17
BITMAP
1C1C
3C3C
3838
7878
7878
F0F0
F0F0
F0F0
F0F0
F0F0
ENDCHAR
STARTCHAR quotedblright
ENCODING -1
SWIDTH 602 0
DWIDTH 22 0
BBX 14 10 4 17
BITMAP
3C3C
3C3C
3C3C
3C3C
3C3C
7878
7878
7070
F0F0
E0E0
ENDCHAR
STARTCHAR quoteleft
ENCODING -1
SWIDTH 602 0
DWIDTH 22 0
BBX 6 10 8 17
BITMAP
1C
3C
38
78
78
F0
F0
F0
F0
F0
ENDCHAR
STARTCHAR quoteright
ENCODING -1
SWIDTH 602 0
DWIDTH 22 0
BBX 6 10 8 17
BITMAP
3C
3C
3C
3C
3C
78
78
70
F0
E0
ENDCHAR
STARTCHAR lozenge
ENCODING -1
SWIDTH 602 0
DWIDTH 22 0
BBX 18 36 2 -7
BITMAP
008000
00C000
00C000
01E000
01E000
033000
033000
061800
061800
0C0C00
0C0C00
180E00
180600
380700
300300
700380
600180
E001C0
C000C0
600180
600180
600380
300300
300300
180600
180600
0C0C00
0C0C00
061800
061800
033000
033000
01E000
01E000
00C000
00C000
ENDCHAR
STARTCHAR Ydieresis
ENCODING -1
SWIDTH 602 0
DWIDTH 22 0
BBX 20 34 1 0
BITMAP
078F00
078F00
078F00
078F00
000000
000000
000000
000000
F801F0
7801E0
7C03E0
3E07C0
1E07C0
1F0F80
0F0F00
0F9F00
079E00
07FE00
03FC00
03FC00
01F800
00F000
00F000
00F000
00F000
00F000
00F000
00F000
00F000
00F000
00F000
00F000
00F000
00F000
ENDCHAR
STARTCHAR fraction
ENCODING -1
SWIDTH 602 0
DWIDTH 22 0
BBX 18 30 2 -4
BITMAP
0003C0
000780
000780
000F00
000F00
001E00
001E00
003E00
003C00
003C00
007800
007800
00F000
00F000
01E000
01E000
03C000
03C000
078000
078000
0F0000
0F0000
1F0000
1E0000
1E0000
3C0000
3C0000
780000
780000
F00000
ENDCHAR
STARTCHAR guilsinglleft
ENCODING -1
SWIDTH 602 0
DWIDTH 22 0
BBX 8 16 6 3
BITMAP
01
03
07
0F
1E
3C
78
E0
E0
78
3C
1E
0F
07
03
01
ENDCHAR
STARTCHAR guilsinglright
ENCODING -1
SWIDTH 602 0
DWIDTH 22 0
BBX 8 16 7 3
BITMAP
80
C0
E0
F0
78
3C
1E
07
07
1E
3C
78
F0
E0
C0
80
ENDCHAR
STARTCHAR fi
ENCODING -1
SWIDTH 602 0
DWIDTH 22 0
BBX 19 27 0 0
BITMAP
01FDE0
03FDE0
07FDE0
0F81E0
0F0000
0F0000
0F0000
FFFFE0
FFFFE0
FFFFE0
0F01E0
0F01E0
0F01E0
0F01E0
0F01E0
0F01E0
0F01E0
0F01E0
0F01E0
0F01E0
0F01E0
0F01E0
0F01E0
0F01E0
0F01E0
0F01E0
0F01E0
ENDCHAR
STARTCHAR fl
ENCODING -1
SWIDTH 602 0
DWIDTH 22 0
BBX 19 27 0 0
BITMAP
01FFE0
03FFE0
07FFE0
0F81E0
0F01E0
0F01E0
0F01E0
FFF9E0
FFF9E0
FFF9E0
0F01E0
0F01E0
0F01E0
0F01E0
0F01E0
0F01E0
0F01E0
0F01E0
0F01E0
0F01E0
0F01E0
0F01E0
0F01E0
0F01E0
0F01E0
0F01E0
0F01E0
ENDCHAR
STARTCHAR daggerdbl
ENCODING -1
SWIDTH 602 0
DWIDTH 22 0
BBX 15 29 3 -3
BITMAP
0380
0380
0380
0380
0380
0380
0380
FFFE
FFFE
FFFE
0380
0380
0380
0380
0380
0380
0380
0380
0380
FFFE
FFFE
FFFE
0380
0380
0380
0380
0380
0380
0380
ENDCHAR
STARTCHAR quotesinglbase
ENCODING -1
SWIDTH 602 0
DWIDTH 22 0
BBX 6 10 7 -5
BITMAP
3C
3C
3C
3C
3C
78
78
70
F0
E0
ENDCHAR
STARTCHAR quotedblbase
ENCODING -1
SWIDTH 602 0
DWIDTH 22 0
BBX 14 10 4 -5
BITMAP
3C3C
3C3C
3C3C
3C3C
3C3C
7878
7878
7070
F0F0
E0E0
ENDCHAR
STARTCHAR perthousand
ENCODING -1
SWIDTH 602 0
DWIDTH 22 0
BBX 22 26 0 0
BITMAP
1E0000
7F8000
618000
C0C000
C0C000
C0C000
C0C010
6180F0
7F83E0
1E0F80
007C00
01F000
07C000
3E0000
780000
600000
0F01E0
3FC7F8
30C618
606C0C
606C0C
606C0C
606C0C
30C618
3FC7F8
0F01E0
ENDCHAR
STARTCHAR dotlessi
ENCODING -1
SWIDTH 602 0
DWIDTH 22 0
BBX 16 20 4 0
BITMAP
7FC0
7FC0
7FC0
03C0
03C0
03C0
03C0
03C0
03C0
03C0
03C0
03C0
03C0
03C0
03C0
03C0
03C0
FFFF
FFFF
FFFF
ENDCHAR
STARTCHAR circumflex
ENCODING -1
SWIDTH 602 0
DWIDTH 22 0
BBX 11 7 5 22
BITMAP
0E00
1F00
1B00
3B80
7180
60C0
E0E0
ENDCHAR
STARTCHAR tilde
ENCODING -1
SWIDTH 602 0
DWIDTH 22 0
BBX 12 5 5 23
BITMAP
3830
7E30
EF70
C7E0
C1C0
ENDCHAR
STARTCHAR breve
ENCODING -1
SWIDTH 602 0
DWIDTH 22 0
BBX 11 6 5 23
BITMAP
C060
C0E0
E0E0
7FC0
3F80
1F00
ENDCHAR
STARTCHAR dotaccent
ENCODING -1
SWIDTH 602 0
DWIDTH 22 0
BBX 4 4 9 23
BITMAP
F0
F0
F0
F0
ENDCHAR
STARTCHAR ring
ENCODING -1
SWIDTH 602 0
DWIDTH 22 0
BBX 10 10 6 22
BITMAP
1E00
7F80
6180
C0C0
C0C0
C0C0
C0C0
6180
7F80
1E00
ENDCHAR
STARTCHAR hungarumlaut
ENCODING -1
SWIDTH 602 0
DWIDTH 22 0
BBX 12 7 6 22
BITMAP
1C70
38E0
39C0
71C0
7380
6300
E700
ENDCHAR
STARTCHAR ogonek
ENCODING -1
SWIDTH 602 0
DWIDTH 22 0
BBX 7 7 7 -7
BITMAP
20
60
C0
C2
FE
FE
3E
ENDCHAR
STARTCHAR caron
ENCODING -1
SWIDTH 602 0
DWIDTH 22 0
BBX 11 7 5 22
BITMAP
E0E0
60C0
31C0
3B80
1B00
1F00
0E00
ENDCHAR
STARTCHAR Lslash
ENCODING -1
SWIDTH 602 0
DWIDTH 22 0
BBX 20 26 0 0
BITMAP
0F0000
0F0000
0F0000
0F0000
0F0000
0F0000
0F0000
0F0C00
0F1C00
0F3C00
0FF000
0FE000
0FC000
0F0000
3F0000
7F0000
EF0000
4F0000
0F0000
0F0000
0F0000
0F0000
0F0000
0FFFF0
0FFFF0
0FFFF0
ENDCHAR
STARTCHAR lslash
ENCODING -1
SWIDTH 602 0
DWIDTH 22 0
BBX 17 27 2 0
BITMAP
7FC000
7FC000
7FC000
03C000
03C000
03C000
03C000
03C300
03C780
03DE00
03FC00
03F000
03E000
0FC000
1FC000
7BC000
F3C000
C3C000
03C000
03C000
03C000
03C000
03E000
01E000
01FF80
00FF80
003F80
ENDCHAR
STARTCHAR Scaron
ENCODING -1
SWIDTH 602 0
DWIDTH 22 0
BBX 17 34 2 0
BITMAP
1C1C00
0E3800
077000
03E000
03E000
000000
000000
000000
07F800
1FFE00
3FFE00
7C0E00
780200
F00000
F00000
F00000
F00000
FC0000
7F8000
7FF000
1FFC00
07FE00
00FF00
001F80
000F80
000780
000780
000780
000780
800F80
F03F00
FFFE00
FFFC00
3FF000
ENDCHAR
STARTCHAR scaron
ENCODING -1
SWIDTH 602 0
DWIDTH 22 0
BBX 14 29 4 0
BITMAP
7070
3060
18E0
1DC0
0D80
0F80
0700
0000
0000
0FC0
3FF0
7FF8
F838
F008
F000
F800
FF80
7FF0
3FF8
0FF8
00FC
007C
003C
003C
803C
E0FC
FFF8
7FF0
1FC0
ENDCHAR
STARTCHAR Zcaron
ENCODING -1
SWIDTH 602 0
DWIDTH 22 0
BBX 18 34 3 0
BITMAP
383800
1C7000
0EE000
07C000
07C000
000000
000000
000000
FFFFC0
FFFFC0
FFFFC0
000780
000F80
001F00
001F00
003E00
007C00
007C00
00F800
00F000
01F000
03E000
03C000
07C000
0F8000
0F8000
1F0000
3E0000
3E0000
7C0000
780000
FFFFC0
FFFFC0
FFFFC0
ENDCHAR
STARTCHAR zcaron
ENCODING -1
SWIDTH 602 0
DWIDTH 22 0
BBX 15 29 4 0
BITMAP
7070
3060
18E0
1DC0
0D80
0F80
0700
0000
0000
FFFE
FFFE
FFFE
007E
007C
00F8
01F0
01F0
03E0
07C0
07C0
0F80
1F00
3E00
3E00
7C00
F800
FFFE
FFFE
FFFE
ENDCHAR
STARTCHAR minus
ENCODING -1
SWIDTH 602 0
DWIDTH 22 0
BBX 19 3 2 10
BITMAP
FFFFE0
FFFFE0
FFFFE0
ENDCHAR
STARTCHAR Gbreve
ENCODING -1
SWIDTH 602 0
DWIDTH 22 0
BBX 18 35 2 0
BITMAP
180C00
1C1C00
0FF800
0FF800
03E000
000000
000000
000000
000000
01FC00
07FF00
0FFF80
1F0780
3E0180
7C0080
780000
780000
F00000
F00000
F00000
F00000
F03FC0
F03FC0
F03FC0
F003C0
F003C0
F003C0
7803C0
7803C0
7C03C0
3C03C0
1F07C0
0FFFC0
07FF00
01FC00
ENDCHAR
STARTCHAR gbreve
ENCODING -1
SWIDTH 602 0
DWIDTH 22 0
BBX 17 36 2 -7
BITMAP
180C00
181C00
1C1C00
0FF800
07F000
03E000
000000
000000
000000
07C780
1FF780
3FFF80
3E1F80
780F80
780F80
F00780
F00780
F00780
F00780
F00780
F00780
F00780
F00780
780F80
780F80
3E1F80
3FF780
1FF780
07C780
000780
000780
200F00
381F00
3FFE00
1FFC00
07F000
ENDCHAR
STARTCHAR Idotaccent
ENCODING -1
SWIDTH 602 0
DWIDTH 22 0
BBX 16 34 3 0
BITMAP
03C0
03C0
03C0
03C0
0000
0000
0000
0000
FFFF
FFFF
FFFF
03C0
03C0
03C0
03C0
03C0
03C0
03C0
03C0
03C0
03C0
03C0
03C0
03C0
03C0
03C0
03C0
03C0
03C0
03C0
03C0
FFFF
FFFF
FFFF
ENDCHAR
STARTCHAR Scedilla
ENCODING -1
SWIDTH 602 0
DWIDTH 22 0
BBX 17 33 2 -7
BITMAP
07F800
1FFE00
3FFE00
7C0E00
780200
F00000
F00000
F00000
F00000
FC0000
7F8000
7FF000
1FFC00
07FE00
00FF00
001F80
000F80
000780
000780
000780
000780
800F80
F03F00
FFFE00
FFFC00
3FF000
004000
006000
003000
043000
07F000
07F000
07E000
ENDCHAR
STARTCHAR scedilla
ENCODING -1
SWIDTH 602 0
DWIDTH 22 0
BBX 14 27 4 -7
BITMAP
0FC0
3FF0
7FF8
F838
F008
F000
F800
FF80
7FF0
3FF8
0FF8
00FC
007C
003C
003C
803C
E0FC
FFF8
7FF0
1FC0
0100
0180
00C0
10C0
1FC0
1FC0
1F80
ENDCHAR
STARTCHAR Cacute
ENCODING -1
SWIDTH 602 0
DWIDTH 22 0
BBX 16 34 2 0
BITMAP
001E
001C
0038
0070
00E0
0000
0000
0000
01F8
07FE
0FFF
1F07
3C03
7C00
7800
7800
F000
F000
F000
F000
F000
F000
F000
F000
F000
F000
7800
7800
7C00
3C03
1F07
0FFF
07FE
01F8
ENDCHAR
STARTCHAR cacute
ENCODING -1
SWIDTH 602 0
DWIDTH 22 0
BBX 15 29 3 0
BITMAP
001E
001C
0038
0070
0070
00E0
01C0
0000
0000
03F0
0FFC
1FFE
3E06
7C02
7800
F800
F000
F000
F000
F000
F000
F000
F800
7800
7C02
3E06
1FFE
0FFC
03F0
ENDCHAR
STARTCHAR Ccaron
ENCODING -1
SWIDTH 602 0
DWIDTH 22 0
BBX 16 34 2 0
BITMAP
0707
038E
01DC
00F8
00F8
0000
0000
0000
01F8
07FE
0FFF
1F07
3C03
7C00
7800
7800
F000
F000
F000
F000
F000
F000
F000
F000
F000
F000
7800
7800
7C00
3C03
1F07
0FFF
07FE
01F8
ENDCHAR
STARTCHAR ccaron
ENCODING -1
SWIDTH 602 0
DWIDTH 22 0
BBX 15 29 3 0
BITMAP
0E0E
060C
031C
03B8
01B0
01F0
00E0
0000
0000
03F0
0FFC
1FFE
3E06
7C02
7800
F800
F000
F000
F000
F000
F000
F000
F800
7800
7C02
3E06
1FFE
0FFC
03F0
ENDCHAR
STARTCHAR dcroat
ENCODING -1
SWIDTH 602 0
DWIDTH 22 0
BBX 20 27 2 0
BITMAP
000780
000780
000780
00FFF0
00FFF0
000780
000780
07C780
1FF780
3FFF80
7C3F80
780F80
780F80
F00780
F00780
F00780
F00780
F00780
F00780
F00780
F00780
780F80
780F80
7C1F80
3FFF80
1FF780
07C780
ENDCHAR
STARTCHAR periodcentered
ENCODING -1
SWIDTH 602 0
DWIDTH 22 0
BBX 4 5 9 10
BITMAP
F0
F0
F0
F0
F0
ENDCHAR
STARTCHAR Euro
ENCODING -1
SWIDTH 602 0
DWIDTH 22 0
BBX 18 26 1 0
BITMAP
007F00
01FF80
03FFC0
07E1C0
078040
0F0000
0F0000
0F0000
1E0000
7FFE00
FFFC00
1E0000
1E0000
1E0000
7FF800
FFF000
1E0000
1E0000
0F0000
0F0000
0F8000
078040
03E1C0
03FFC0
00FF80
007F00
ENDCHAR
STARTCHAR c6459
ENCODING -1
SWIDTH 602 0
DWIDTH 22 0
BBX 11 4 6 23
BITMAP
F1E0
F1E0
F1E0
F1E0
ENDCHAR
STARTCHAR c6460
ENCODING -1
SWIDTH 602 0
DWIDTH 22 0
BBX 7 5 8 22
BITMAP
1E
1C
38
70
E0
ENDCHAR
STARTCHAR c6461
ENCODING -1
SWIDTH 602 0
DWIDTH 22 0
BBX 12 4 5 23
BITMAP
3830
7E30
C7E0
C1C0
ENDCHAR
STARTCHAR c6468
ENCODING -1
SWIDTH 602 0
DWIDTH 22 0
BBX 7 5 7 22
BITMAP
F0
70
38
1C
0E
ENDCHAR
STARTCHAR c6470
ENCODING -1
SWIDTH 602 0
DWIDTH 22 0
BBX 11 5 5 22
BITMAP
1F00
1F00
3B80
71C0
E0E0
ENDCHAR
STARTCHAR c6472
ENCODING -1
SWIDTH 602 0
DWIDTH 22 0
BBX 11 5 5 22
BITMAP
E0E0
71C0
3B80
1F00
1F00
ENDCHAR
STARTCHAR c6477
ENCODING -1
SWIDTH 602 0
DWIDTH 22 0
BBX 19 7 0 8
BITMAP
000060
0007E0
007F80
03F800
3FC000
FC0000
C00000
ENDCHAR
STARTCHAR c6478
ENCODING -1
SWIDTH 602 0
DWIDTH 22 0
BBX 11 15 5 11
BITMAP
0380
0780
0780
0B80
1B80
1380
3380
6380
6380
C380
FFE0
FFE0
0380
0380
0380
ENDCHAR
STARTCHAR c6475
ENCODING -1
SWIDTH 602 0
DWIDTH 22 0
BBX 11 5 5 23
BITMAP
C060
E0E0
7FC0
7FC0
1F00
ENDCHAR
STARTCHAR c6476
ENCODING -1
SWIDTH 602 0
DWIDTH 22 0
BBX 4 4 9 23
BITMAP
F0
F0
F0
F0
ENDCHAR
ENDFONT
